<svg width="1373" height="1514" viewBox="0 0 1373 1514" fill="none" xmlns="http://www.w3.org/2000/svg">
<g filter="url(#filter0_f_3454_973)">
<g opacity="0.85" filter="url(#filter1_i_3454_973)">
<path fill-rule="evenodd" clip-rule="evenodd" d="M581.49 48.0754C646.371 10.6369 726.299 10.6462 791.181 48.0754L1247.83 311.628C1312.72 349.105 1352.67 418.38 1352.67 493.324V1020.23C1352.67 1095.17 1312.72 1164.45 1247.83 1201.93L791.181 1465.48C726.299 1502.92 646.381 1502.92 581.49 1465.48L124.941 1201.93C60.0206 1164.46 20.0049 1095.19 20 1020.23V493.324C20.0001 418.362 60.0195 349.105 124.941 311.628L581.49 48.0754Z" fill="url(#paint0_radial_3454_973)"/>
</g>
<g opacity="0.35" filter="url(#filter2_i_3454_973)">
<path fill-rule="evenodd" clip-rule="evenodd" d="M598.964 166.193C653.032 134.994 719.638 135.002 773.706 166.193L1154.25 385.82C1208.32 417.05 1241.61 474.78 1241.61 537.233V976.322C1241.61 1038.78 1208.32 1096.51 1154.25 1127.74L773.706 1347.36C719.638 1378.56 653.04 1378.56 598.964 1347.36L218.507 1127.74C164.406 1096.51 131.06 1038.79 131.056 976.322V537.233C131.056 474.765 164.405 417.05 218.507 385.82L598.964 166.193Z" fill="url(#paint1_radial_3454_973)"/>
</g>
</g>
<defs>
<filter id="filter0_f_3454_973" x="0" y="0" width="1372.67" height="1513.56" filterUnits="userSpaceOnUse" color-interpolation-filters="sRGB">
<feFlood flood-opacity="0" result="BackgroundImageFix"/>
<feBlend mode="normal" in="SourceGraphic" in2="BackgroundImageFix" result="shape"/>
<feGaussianBlur stdDeviation="10" result="effect1_foregroundBlur_3454_973"/>
</filter>
<filter id="filter1_i_3454_973" x="20" y="20" width="1416.67" height="1478.36" filterUnits="userSpaceOnUse" color-interpolation-filters="sRGB">
<feFlood flood-opacity="0" result="BackgroundImageFix"/>
<feBlend mode="normal" in="SourceGraphic" in2="BackgroundImageFix" result="shape"/>
<feColorMatrix in="SourceAlpha" type="matrix" values="0 0 0 0 0 0 0 0 0 0 0 0 0 0 0 0 0 0 127 0" result="hardAlpha"/>
<feOffset dx="84" dy="4.8"/>
<feGaussianBlur stdDeviation="56.4"/>
<feComposite in2="hardAlpha" operator="arithmetic" k2="-1" k3="1"/>
<feColorMatrix type="matrix" values="0 0 0 0 0.32549 0 0 0 0 0.407843 0 0 0 0 0.741176 0 0 0 0.08 0"/>
<feBlend mode="normal" in2="shape" result="effect1_innerShadow_3454_973"/>
</filter>
<filter id="filter2_i_3454_973" x="131.056" y="142.797" width="1180.56" height="1231.97" filterUnits="userSpaceOnUse" color-interpolation-filters="sRGB">
<feFlood flood-opacity="0" result="BackgroundImageFix"/>
<feBlend mode="normal" in="SourceGraphic" in2="BackgroundImageFix" result="shape"/>
<feColorMatrix in="SourceAlpha" type="matrix" values="0 0 0 0 0 0 0 0 0 0 0 0 0 0 0 0 0 0 127 0" result="hardAlpha"/>
<feOffset dx="70" dy="4"/>
<feGaussianBlur stdDeviation="62"/>
<feComposite in2="hardAlpha" operator="arithmetic" k2="-1" k3="1"/>
<feColorMatrix type="matrix" values="0 0 0 0 0.32549 0 0 0 0 0.407843 0 0 0 0 0.741176 0 0 0 0.4 0"/>
<feBlend mode="normal" in2="shape" result="effect1_innerShadow_3454_973"/>
</filter>
<radialGradient id="paint0_radial_3454_973" cx="0" cy="0" r="1" gradientUnits="userSpaceOnUse" gradientTransform="translate(686.334 756.779) rotate(90) scale(736.779 666.334)">
<stop stop-color="#39558E" stop-opacity="0.1"/>
<stop offset="1" stop-color="#101828" stop-opacity="0.1"/>
</radialGradient>
<radialGradient id="paint1_radial_3454_973" cx="0" cy="0" r="1" gradientUnits="userSpaceOnUse" gradientTransform="translate(686.334 756.779) rotate(90) scale(613.983 555.278)">
<stop offset="0.104981" stop-color="#39558E" stop-opacity="0.01"/>
<stop offset="1" stop-color="#5368BD" stop-opacity="0.36"/>
</radialGradient>
</defs>
</svg>
