<svg width="44" height="44" viewBox="0 0 44 44" fill="none" xmlns="http://www.w3.org/2000/svg">
<g clip-path="url(#clip0_3282_2312)">
<mask id="mask0_3282_2312" style="mask-type:luminance" maskUnits="userSpaceOnUse" x="0" y="0" width="44" height="44">
<path d="M44 0H0V43.102H44V0Z" fill="white"/>
</mask>
<g mask="url(#mask0_3282_2312)">
<path d="M21.957 0.5C33.8398 0.5 43.5 10.2006 43.5 22.0859C43.5 31.4922 37.5376 39.0912 29.9434 41.9863L29.9355 41.9893C29.4124 42.1985 28.9972 42.1336 28.7285 41.959C28.4614 41.7854 28.2578 41.4508 28.2578 40.9492V36.4805C28.2578 34.4756 27.5806 32.6237 26.4541 31.4258C31.8363 30.3284 35.5625 26.3364 35.5625 21.0977C35.5625 18.8568 34.8593 16.6443 33.5166 14.9385C33.7587 14.1408 33.8517 13.0864 33.8271 12.0996C33.7999 11.003 33.6278 9.86492 33.2725 9.17969L33.1514 8.94629L32.8906 8.91406L32.5234 8.88379C31.6538 8.84525 30.6977 9.03352 29.8066 9.35352C28.883 9.68526 27.991 10.173 27.2939 10.7461C25.7635 10.3076 24.073 10.0703 22.043 10.0703C20.007 10.0703 18.3119 10.3092 16.7041 10.7871C15.9929 10.1968 15.1016 9.69741 14.1797 9.35938C13.1652 8.98745 12.0721 8.79373 11.1094 8.91406L10.8486 8.94629L10.7275 9.18066C10.3528 9.90537 10.1676 11.0607 10.1348 12.167C10.1054 13.1564 10.1962 14.2032 10.4385 14.9863C9.17508 16.6255 8.4375 18.9461 8.4375 21.0977C8.43751 26.3473 12.1825 30.4303 17.5312 31.4854C17.1943 31.8305 16.833 32.2178 16.4473 32.6035C15.9668 33.0839 15.5907 33.3852 15.2295 33.5703C14.8803 33.7492 14.5202 33.832 14.0508 33.832C13.1967 33.832 12.4289 33.4074 11.626 32.2432L11.624 32.2402L11.4082 31.9414C10.3239 30.4911 9.17727 29.6641 7.77734 29.6641C7.28084 29.6641 6.77282 29.7742 6.37207 29.9746C6.02863 30.1463 5.61386 30.4676 5.56348 30.9648L5.55859 31.0664L5.5625 31.1611C5.58293 31.3831 5.67765 31.6101 5.88477 31.7861C6.09758 31.967 6.37876 32.0481 6.68164 32.0762V32.0781C7.05845 32.1273 7.32874 32.2755 7.5625 32.5254C7.81111 32.7912 8.03085 33.1852 8.25977 33.7471L8.26172 33.751C8.88058 35.2318 9.6407 36.4219 10.6533 37.2402C11.6771 38.0676 12.9201 38.4844 14.4375 38.4844C14.9486 38.4844 15.4955 38.3975 16 38.2559V40.9922C16 41.7842 15.2489 42.3429 14.3965 42.0273L14.3936 42.0264L14.0215 41.8867C6.23575 38.8884 0.500001 31.2608 0.5 22.0859C0.5 10.1981 10.0768 0.500001 21.957 0.5Z" fill="url(#paint0_linear_3282_2312)" stroke="url(#paint1_linear_3282_2312)"/>
</g>
</g>
<defs>
<linearGradient id="paint0_linear_3282_2312" x1="22" y1="5.86383e-09" x2="21.5855" y2="79.9554" gradientUnits="userSpaceOnUse">
<stop stop-color="#3B3B47"/>
<stop offset="1" stop-color="#040406"/>
</linearGradient>
<linearGradient id="paint1_linear_3282_2312" x1="22" y1="0" x2="22" y2="42.6198" gradientUnits="userSpaceOnUse">
<stop stop-color="#515161"/>
<stop offset="1" stop-color="#213131" stop-opacity="0"/>
</linearGradient>
<clipPath id="clip0_3282_2312">
<rect width="44" height="43.102" fill="white"/>
</clipPath>
</defs>
</svg>
