<svg width="44" height="44" viewBox="0 0 44 44" fill="none" xmlns="http://www.w3.org/2000/svg">
<g clip-path="url(#clip0_3282_2089)">
<rect width="44" height="44" rx="22" fill="url(#paint0_linear_3282_2089)"/>
<g opacity="0.7" filter="url(#filter0_f_3282_2089)">
<ellipse cx="22" cy="43.5" rx="17" ry="8.5" fill="#4B7B77"/>
</g>
<g filter="url(#filter1_d_3282_2089)">
<path d="M12.0629 22.3478C11.979 22.1225 11.979 21.8773 12.0629 21.6521C14.3266 16.164 20.6097 13.5492 26.0978 15.8129C28.7436 16.9038 30.8461 19.0063 31.9371 21.6521C32.021 21.8773 32.021 22.1225 31.9371 22.3478C29.6734 27.8358 23.3902 30.4507 17.9022 28.187C15.2564 27.096 13.1539 24.9935 12.0629 22.3478Z" stroke="#63D0BD" stroke-width="1.7" stroke-linecap="round" stroke-linejoin="round"/>
<path d="M22.0011 24.9978C23.6575 24.9978 25.0002 23.655 25.0002 21.9986C25.0002 20.3423 23.6575 18.9995 22.0011 18.9995C20.3447 18.9995 19.002 20.3423 19.002 21.9986C19.002 23.655 20.3447 24.9978 22.0011 24.9978Z" stroke="#63D0BD" stroke-width="1.7" stroke-linecap="round" stroke-linejoin="round"/>
</g>
</g>
<rect x="0.5" y="0.5" width="43" height="43" rx="21.5" stroke="url(#paint1_linear_3282_2089)"/>
<defs>
<filter id="filter0_f_3282_2089" x="-9" y="21" width="62" height="45" filterUnits="userSpaceOnUse" color-interpolation-filters="sRGB">
<feFlood flood-opacity="0" result="BackgroundImageFix"/>
<feBlend mode="normal" in="SourceGraphic" in2="BackgroundImageFix" result="shape"/>
<feGaussianBlur stdDeviation="7" result="effect1_foregroundBlur_3282_2089"/>
</filter>
<filter id="filter1_d_3282_2089" x="6.1499" y="9.14795" width="31.7002" height="25.7041" filterUnits="userSpaceOnUse" color-interpolation-filters="sRGB">
<feFlood flood-opacity="0" result="BackgroundImageFix"/>
<feColorMatrix in="SourceAlpha" type="matrix" values="0 0 0 0 0 0 0 0 0 0 0 0 0 0 0 0 0 0 127 0" result="hardAlpha"/>
<feOffset/>
<feGaussianBlur stdDeviation="2.5"/>
<feComposite in2="hardAlpha" operator="out"/>
<feColorMatrix type="matrix" values="0 0 0 0 0.38806 0 0 0 0 0.816855 0 0 0 0 0.739672 0 0 0 0.5 0"/>
<feBlend mode="normal" in2="BackgroundImageFix" result="effect1_dropShadow_3282_2089"/>
<feBlend mode="normal" in="SourceGraphic" in2="effect1_dropShadow_3282_2089" result="shape"/>
</filter>
<linearGradient id="paint0_linear_3282_2089" x1="22" y1="0" x2="22" y2="44" gradientUnits="userSpaceOnUse">
<stop stop-color="#3B3B47"/>
<stop offset="1" stop-color="#040406"/>
</linearGradient>
<linearGradient id="paint1_linear_3282_2089" x1="22" y1="0" x2="22" y2="44" gradientUnits="userSpaceOnUse">
<stop stop-color="#515161"/>
<stop offset="1" stop-color="#213131" stop-opacity="0"/>
</linearGradient>
<clipPath id="clip0_3282_2089">
<rect width="44" height="44" rx="22" fill="white"/>
</clipPath>
</defs>
</svg>
