<svg width="44" height="44" viewBox="0 0 44 44" fill="none" xmlns="http://www.w3.org/2000/svg">
<g clip-path="url(#clip0_3282_2081)">
<rect width="44" height="44" rx="22" fill="url(#paint0_linear_3282_2081)"/>
<g opacity="0.7" filter="url(#filter0_f_3282_2081)">
<ellipse cx="22" cy="43.5" rx="17" ry="8.5" fill="#4B7B77"/>
</g>
<g filter="url(#filter1_d_3282_2081)">
<path d="M31.1737 16.8141C32.2754 15.7147 32.2754 13.9295 31.1737 12.8278C30.0743 11.726 28.2891 11.726 27.1874 12.8278L13.8432 26.1742C13.61 26.4051 13.4386 26.6908 13.3426 27.0039L12.0214 31.356C11.9414 31.6211 12.0923 31.9 12.3574 31.9777C12.4512 32.0052 12.5517 32.0052 12.6454 31.9777L16.9975 30.6589C17.3107 30.5629 17.5964 30.3937 17.8272 30.1628L31.1714 16.8164L31.1737 16.8141Z" stroke="#63D0BD" stroke-width="1.7" stroke-linecap="round" stroke-linejoin="round"/>
<path d="M25.6172 14.4619L29.6172 18.462" stroke="#63D0BD" stroke-width="1.7" stroke-miterlimit="10"/>
</g>
</g>
<rect x="0.5" y="0.5" width="43" height="43" rx="21.5" stroke="url(#paint1_linear_3282_2081)"/>
<defs>
<filter id="filter0_f_3282_2081" x="-9" y="21" width="62" height="45" filterUnits="userSpaceOnUse" color-interpolation-filters="sRGB">
<feFlood flood-opacity="0" result="BackgroundImageFix"/>
<feBlend mode="normal" in="SourceGraphic" in2="BackgroundImageFix" result="shape"/>
<feGaussianBlur stdDeviation="7" result="effect1_foregroundBlur_3282_2081"/>
</filter>
<filter id="filter1_d_3282_2081" x="6.1499" y="6.15137" width="31.7002" height="31.6968" filterUnits="userSpaceOnUse" color-interpolation-filters="sRGB">
<feFlood flood-opacity="0" result="BackgroundImageFix"/>
<feColorMatrix in="SourceAlpha" type="matrix" values="0 0 0 0 0 0 0 0 0 0 0 0 0 0 0 0 0 0 127 0" result="hardAlpha"/>
<feOffset/>
<feGaussianBlur stdDeviation="2.5"/>
<feComposite in2="hardAlpha" operator="out"/>
<feColorMatrix type="matrix" values="0 0 0 0 0.38806 0 0 0 0 0.816855 0 0 0 0 0.739672 0 0 0 0.5 0"/>
<feBlend mode="normal" in2="BackgroundImageFix" result="effect1_dropShadow_3282_2081"/>
<feBlend mode="normal" in="SourceGraphic" in2="effect1_dropShadow_3282_2081" result="shape"/>
</filter>
<linearGradient id="paint0_linear_3282_2081" x1="22" y1="0" x2="22" y2="44" gradientUnits="userSpaceOnUse">
<stop stop-color="#3B3B47"/>
<stop offset="1" stop-color="#040406"/>
</linearGradient>
<linearGradient id="paint1_linear_3282_2081" x1="22" y1="0" x2="22" y2="44" gradientUnits="userSpaceOnUse">
<stop stop-color="#515161"/>
<stop offset="1" stop-color="#213131" stop-opacity="0"/>
</linearGradient>
<clipPath id="clip0_3282_2081">
<rect width="44" height="44" rx="22" fill="white"/>
</clipPath>
</defs>
</svg>
