<svg width="44" height="44" viewBox="0 0 44 44" fill="none" xmlns="http://www.w3.org/2000/svg">
<g clip-path="url(#clip0_3282_2105)">
<rect width="44" height="44" rx="22" fill="#040406"/>
<rect width="44" height="44" rx="22" fill="url(#paint0_linear_3282_2105)"/>
<g filter="url(#filter0_d_3282_2105)">
<path d="M12.9993 12V18.0005H18.9997" stroke="#AB95F2" stroke-width="1.7" stroke-linecap="round" stroke-linejoin="round"/>
<path d="M31.0006 22.0001C30.996 17.0297 26.9623 13.0028 21.9919 13.0073C19.7813 13.0073 17.6482 13.8255 16.0005 15.3L13.0015 18.0005" stroke="#AB95F2" stroke-width="1.7" stroke-linecap="round" stroke-linejoin="round"/>
<path d="M31.0007 32V25.9995H25.0002" stroke="#AB95F2" stroke-width="1.7" stroke-linecap="round" stroke-linejoin="round"/>
<path d="M12.9993 22C13.0038 26.9704 17.0375 30.9973 22.0079 30.9928C24.2185 30.9928 26.3516 30.1746 27.9993 28.7001L30.9984 25.9996" stroke="#AB95F2" stroke-width="1.7" stroke-linecap="round" stroke-linejoin="round"/>
<path d="M22.0009 23.0004C22.5535 23.0004 23.0014 22.5525 23.0014 22C23.0014 21.4474 22.5535 20.9995 22.0009 20.9995C21.4484 20.9995 21.0005 21.4474 21.0005 22C21.0005 22.5525 21.4484 23.0004 22.0009 23.0004Z" stroke="#AB95F2" stroke-width="1.7" stroke-linecap="round" stroke-linejoin="round"/>
</g>
<g opacity="0.7" filter="url(#filter1_f_3282_2105)">
<ellipse cx="22" cy="43.5" rx="17" ry="8.5" fill="#7B7B9C"/>
</g>
</g>
<rect x="0.5" y="0.5" width="43" height="43" rx="21.5" stroke="url(#paint1_linear_3282_2105)"/>
<defs>
<filter id="filter0_d_3282_2105" x="7.14917" y="6.1499" width="29.7017" height="31.7002" filterUnits="userSpaceOnUse" color-interpolation-filters="sRGB">
<feFlood flood-opacity="0" result="BackgroundImageFix"/>
<feColorMatrix in="SourceAlpha" type="matrix" values="0 0 0 0 0 0 0 0 0 0 0 0 0 0 0 0 0 0 127 0" result="hardAlpha"/>
<feOffset/>
<feGaussianBlur stdDeviation="2.5"/>
<feComposite in2="hardAlpha" operator="out"/>
<feColorMatrix type="matrix" values="0 0 0 0 0.670588 0 0 0 0 0.584314 0 0 0 0 0.94902 0 0 0 0.5 0"/>
<feBlend mode="normal" in2="BackgroundImageFix" result="effect1_dropShadow_3282_2105"/>
<feBlend mode="normal" in="SourceGraphic" in2="effect1_dropShadow_3282_2105" result="shape"/>
</filter>
<filter id="filter1_f_3282_2105" x="-9" y="21" width="62" height="45" filterUnits="userSpaceOnUse" color-interpolation-filters="sRGB">
<feFlood flood-opacity="0" result="BackgroundImageFix"/>
<feBlend mode="normal" in="SourceGraphic" in2="BackgroundImageFix" result="shape"/>
<feGaussianBlur stdDeviation="7" result="effect1_foregroundBlur_3282_2105"/>
</filter>
<linearGradient id="paint0_linear_3282_2105" x1="22" y1="0" x2="22" y2="44" gradientUnits="userSpaceOnUse">
<stop stop-color="#3B3B47"/>
<stop offset="1" stop-color="#040406"/>
</linearGradient>
<linearGradient id="paint1_linear_3282_2105" x1="22" y1="0" x2="22" y2="44" gradientUnits="userSpaceOnUse">
<stop stop-color="#515161"/>
<stop offset="1" stop-color="#213131" stop-opacity="0"/>
</linearGradient>
<clipPath id="clip0_3282_2105">
<rect width="44" height="44" rx="22" fill="white"/>
</clipPath>
</defs>
</svg>
