<svg width="44" height="44" viewBox="0 0 44 44" fill="none" xmlns="http://www.w3.org/2000/svg">
<g clip-path="url(#clip0_3282_1941)">
<rect width="44" height="44" rx="22" fill="url(#paint0_linear_3282_1941)"/>
<g opacity="0.7" filter="url(#filter0_f_3282_1941)">
<ellipse cx="22" cy="43.5" rx="17" ry="8.5" fill="#4B7B77"/>
</g>
<g filter="url(#filter1_d_3282_1941)">
<path d="M20.889 29.7778C25.7982 29.7778 29.778 25.7981 29.778 20.8889C29.778 15.9797 25.7982 12 20.889 12C15.9797 12 12 15.9797 12 20.8889C12 25.7981 15.9797 29.7778 20.889 29.7778Z" stroke="#63D0BD" stroke-width="1.7" stroke-linecap="round" stroke-linejoin="round"/>
<path d="M31.9999 32.0004L27.2236 27.2241" stroke="#63D0BD" stroke-width="1.7" stroke-linecap="round" stroke-linejoin="round"/>
</g>
</g>
<rect x="0.5" y="0.5" width="43" height="43" rx="21.5" stroke="url(#paint1_linear_3282_1941)"/>
<defs>
<filter id="filter0_f_3282_1941" x="-9" y="21" width="62" height="45" filterUnits="userSpaceOnUse" color-interpolation-filters="sRGB">
<feFlood flood-opacity="0" result="BackgroundImageFix"/>
<feBlend mode="normal" in="SourceGraphic" in2="BackgroundImageFix" result="shape"/>
<feGaussianBlur stdDeviation="7" result="effect1_foregroundBlur_3282_1941"/>
</filter>
<filter id="filter1_d_3282_1941" x="6.1499" y="6.1499" width="31.7002" height="31.7007" filterUnits="userSpaceOnUse" color-interpolation-filters="sRGB">
<feFlood flood-opacity="0" result="BackgroundImageFix"/>
<feColorMatrix in="SourceAlpha" type="matrix" values="0 0 0 0 0 0 0 0 0 0 0 0 0 0 0 0 0 0 127 0" result="hardAlpha"/>
<feOffset/>
<feGaussianBlur stdDeviation="2.5"/>
<feComposite in2="hardAlpha" operator="out"/>
<feColorMatrix type="matrix" values="0 0 0 0 0.38806 0 0 0 0 0.816855 0 0 0 0 0.739672 0 0 0 0.5 0"/>
<feBlend mode="normal" in2="BackgroundImageFix" result="effect1_dropShadow_3282_1941"/>
<feBlend mode="normal" in="SourceGraphic" in2="effect1_dropShadow_3282_1941" result="shape"/>
</filter>
<linearGradient id="paint0_linear_3282_1941" x1="22" y1="0" x2="22" y2="44" gradientUnits="userSpaceOnUse">
<stop stop-color="#3B3B47"/>
<stop offset="1" stop-color="#040406"/>
</linearGradient>
<linearGradient id="paint1_linear_3282_1941" x1="22" y1="0" x2="22" y2="44" gradientUnits="userSpaceOnUse">
<stop stop-color="#515161"/>
<stop offset="1" stop-color="#213131" stop-opacity="0"/>
</linearGradient>
<clipPath id="clip0_3282_1941">
<rect width="44" height="44" rx="22" fill="white"/>
</clipPath>
</defs>
</svg>
