<svg width="44" height="44" viewBox="0 0 44 44" fill="none" xmlns="http://www.w3.org/2000/svg">
<g clip-path="url(#clip0_3282_2125)">
<rect width="44" height="44" rx="22" fill="#040406"/>
<rect width="44" height="44" rx="22" fill="url(#paint0_linear_3282_2125)"/>
<g filter="url(#filter0_d_3282_2125)">
<path d="M20.8899 27.5549C20.8899 30.0088 18.9011 31.9999 16.4449 31.9999C13.9888 31.9999 12 30.0111 12 27.5549V14.2225C12 12.9944 12.9944 12 14.2225 12H18.6674C19.8955 12 20.8899 12.9944 20.8899 14.2225V27.5549Z" stroke="#AB95F2" stroke-width="1.7" stroke-linecap="round" stroke-linejoin="round"/>
<path d="M27.2229 23.1099H29.7776C31.0056 23.1099 32 24.1043 32 25.3323V29.7773C32 31.0053 31.0056 31.9997 29.7776 31.9997H16.4451" stroke="#AB95F2" stroke-width="1.7" stroke-linecap="round" stroke-linejoin="round"/>
<path d="M16.4451 27.5547H16.4565" stroke="#AB95F2" stroke-width="1.7" stroke-linecap="round" stroke-linejoin="round"/>
<path d="M20.89 17.5564L23.4447 15.0017C24.4849 13.9592 26.1735 13.9547 27.216 14.9949C27.2206 14.9995 27.2229 15.0017 27.2275 15.0063L29.3331 17.1119C30.3939 18.1338 30.4283 19.8201 29.4064 20.8832C29.3927 20.8993 29.3766 20.913 29.3629 20.9291L19.6665 30.6689" stroke="#AB95F2" stroke-width="1.7" stroke-linecap="round" stroke-linejoin="round"/>
</g>
<g opacity="0.7" filter="url(#filter1_f_3282_2125)">
<ellipse cx="22" cy="43.5" rx="17" ry="8.5" fill="#7B7B9C"/>
</g>
</g>
<rect x="0.5" y="0.5" width="43" height="43" rx="21.5" stroke="url(#paint1_linear_3282_2125)"/>
<defs>
<filter id="filter0_d_3282_2125" x="6.1499" y="6.1499" width="31.7002" height="31.7002" filterUnits="userSpaceOnUse" color-interpolation-filters="sRGB">
<feFlood flood-opacity="0" result="BackgroundImageFix"/>
<feColorMatrix in="SourceAlpha" type="matrix" values="0 0 0 0 0 0 0 0 0 0 0 0 0 0 0 0 0 0 127 0" result="hardAlpha"/>
<feOffset/>
<feGaussianBlur stdDeviation="2.5"/>
<feComposite in2="hardAlpha" operator="out"/>
<feColorMatrix type="matrix" values="0 0 0 0 0.670588 0 0 0 0 0.584314 0 0 0 0 0.94902 0 0 0 0.5 0"/>
<feBlend mode="normal" in2="BackgroundImageFix" result="effect1_dropShadow_3282_2125"/>
<feBlend mode="normal" in="SourceGraphic" in2="effect1_dropShadow_3282_2125" result="shape"/>
</filter>
<filter id="filter1_f_3282_2125" x="-9" y="21" width="62" height="45" filterUnits="userSpaceOnUse" color-interpolation-filters="sRGB">
<feFlood flood-opacity="0" result="BackgroundImageFix"/>
<feBlend mode="normal" in="SourceGraphic" in2="BackgroundImageFix" result="shape"/>
<feGaussianBlur stdDeviation="7" result="effect1_foregroundBlur_3282_2125"/>
</filter>
<linearGradient id="paint0_linear_3282_2125" x1="22" y1="0" x2="22" y2="44" gradientUnits="userSpaceOnUse">
<stop stop-color="#3B3B47"/>
<stop offset="1" stop-color="#040406"/>
</linearGradient>
<linearGradient id="paint1_linear_3282_2125" x1="22" y1="0" x2="22" y2="44" gradientUnits="userSpaceOnUse">
<stop stop-color="#515161"/>
<stop offset="1" stop-color="#213131" stop-opacity="0"/>
</linearGradient>
<clipPath id="clip0_3282_2125">
<rect width="44" height="44" rx="22" fill="white"/>
</clipPath>
</defs>
</svg>
