<svg width="6791" height="1565" viewBox="0 0 6791 1565" fill="none" xmlns="http://www.w3.org/2000/svg">
<path d="M726.772 159.901C761.254 139.993 803.737 139.993 838.219 159.901L1293.82 422.942C1328.3 442.85 1349.54 479.642 1349.54 519.457V1045.54C1349.54 1085.36 1328.3 1122.15 1293.82 1142.05L838.219 1405.1C803.737 1425 761.254 1425 726.772 1405.1L271.172 1142.05C236.691 1122.15 215.449 1085.36 215.449 1045.54V519.457C215.449 479.641 236.69 442.85 271.172 422.942L726.772 159.901ZM1166 460.679C1166 422.97 1125.18 399.4 1092.53 418.254L861.683 551.528C845.456 560.896 835.46 578.21 835.46 596.947L835.459 786.208C835.459 811.21 822.12 834.312 800.469 846.813L654.414 931.137C634.131 942.848 621.636 964.49 621.636 987.911L621.639 1233.84C621.639 1271.55 662.461 1295.12 695.118 1276.27L1124.02 1028.64C1150 1013.64 1166 985.918 1166 955.916V460.679ZM943.367 331.153C943.366 293.444 902.545 269.875 869.888 288.73L440.989 536.355C415.007 551.356 399.001 579.079 399.001 609.08V1104.32C399.001 1142.03 439.823 1165.6 472.48 1146.74L531.684 1112.56C551.967 1100.85 564.463 1079.21 564.463 1055.79V924.408L817.114 508.093L913.867 452.232C932.122 441.692 943.368 422.214 943.368 401.135L943.367 331.153Z" fill="#E69135"/>
<path d="M6423.13 1088.63C6369.22 1088.63 6321.48 1077.26 6279.91 1054.53C6238.99 1031.8 6206.84 1000.94 6183.46 961.971C6160.72 922.35 6149.36 877.208 6149.36 826.545C6149.36 786.274 6155.85 749.576 6168.84 716.45C6181.83 683.324 6199.7 654.745 6222.43 630.712C6245.81 606.03 6273.42 587.194 6305.24 574.203C6337.72 560.563 6373.12 553.743 6411.44 553.743C6445.22 553.743 6476.72 560.238 6505.95 573.229C6535.18 586.22 6560.51 604.082 6581.94 626.815C6603.38 648.899 6619.62 675.53 6630.66 706.707C6642.35 737.235 6647.87 770.685 6647.22 807.059L6646.25 848.954H6230.22L6207.81 767.113H6545.89L6530.31 783.676V762.242C6528.36 742.106 6521.86 724.569 6510.82 709.63C6499.78 694.041 6485.49 682.025 6467.95 673.581C6451.06 664.488 6432.23 659.941 6411.44 659.941C6379.62 659.941 6352.66 666.111 6330.58 678.453C6309.14 690.794 6292.9 708.656 6281.86 732.039C6270.82 754.772 6265.3 783.351 6265.3 817.776C6265.3 850.902 6272.12 879.806 6285.76 904.488C6300.05 929.17 6319.86 948.331 6345.19 961.971C6371.17 974.962 6401.37 981.457 6435.8 981.457C6459.83 981.457 6481.92 977.56 6502.05 969.766C6522.19 961.971 6543.95 948.007 6567.33 927.871L6626.76 1010.69C6609.22 1026.92 6589.09 1040.89 6566.35 1052.58C6544.27 1063.62 6520.89 1072.39 6496.21 1078.89C6471.52 1085.38 6447.17 1088.63 6423.13 1088.63Z" fill="white"/>
<path d="M5774.01 1302.97C5735.69 1302.97 5697.37 1297.13 5659.04 1285.44C5621.37 1273.75 5590.84 1258.48 5567.46 1239.64L5610.33 1150.98C5623.97 1160.73 5639.23 1169.17 5656.12 1176.32C5673.01 1183.46 5690.87 1188.98 5709.71 1192.88C5729.19 1196.78 5748.36 1198.72 5767.19 1198.72C5801.62 1198.72 5830.2 1193.2 5852.93 1182.16C5876.31 1171.77 5893.85 1155.53 5905.54 1133.45C5917.23 1112.01 5923.08 1085.06 5923.08 1052.58V958.075L5940.62 964.895C5936.72 985.03 5926 1004.19 5908.46 1022.38C5890.93 1040.56 5868.84 1055.5 5842.21 1067.2C5815.58 1078.24 5788.3 1083.76 5760.37 1083.76C5711.66 1083.76 5668.46 1072.39 5630.79 1049.66C5593.77 1026.92 5564.21 996.072 5542.13 957.1C5520.7 917.479 5509.98 872.012 5509.98 820.699C5509.98 769.387 5520.7 723.92 5542.13 684.299C5563.56 644.028 5592.79 612.526 5629.82 589.792C5667.49 566.409 5709.71 554.718 5756.47 554.718C5775.96 554.718 5794.8 556.991 5812.98 561.538C5831.17 566.085 5847.73 572.58 5862.67 581.024C5878.26 589.468 5892.23 598.886 5904.57 609.278C5916.91 619.671 5926.98 630.713 5934.77 642.404C5942.56 654.096 5947.44 665.462 5949.38 676.504L5924.05 684.299L5926 565.435H6043.89V1043.81C6043.89 1085.38 6037.72 1122.08 6025.38 1153.91C6013.04 1185.73 5995.18 1212.69 5971.79 1234.77C5948.41 1257.51 5920.16 1274.39 5887.03 1285.44C5853.9 1297.13 5816.23 1302.97 5774.01 1302.97ZM5778.88 981.458C5808.11 981.458 5833.77 974.637 5855.85 960.997C5878.59 947.357 5896.12 928.521 5908.46 904.488C5920.8 880.456 5926.98 852.851 5926.98 821.674C5926.98 789.847 5920.48 761.917 5907.49 737.885C5895.15 713.203 5877.94 694.042 5855.85 680.401C5833.77 666.761 5808.11 659.941 5778.88 659.941C5749.65 659.941 5724 667.086 5701.91 681.376C5679.83 695.016 5662.29 714.177 5649.3 738.859C5636.96 762.891 5630.79 790.496 5630.79 821.674C5630.79 852.202 5636.96 879.806 5649.3 904.488C5662.29 928.521 5679.83 947.357 5701.91 960.997C5724 974.637 5749.65 981.458 5778.88 981.458Z" fill="white"/>
<path d="M5111.88 1088.63C5069.66 1088.63 5031.34 1076.94 4996.91 1053.56C4962.49 1030.17 4934.88 998.345 4914.1 958.075C4893.31 917.804 4882.92 872.012 4882.92 820.699C4882.92 769.387 4893.31 723.595 4914.1 683.324C4934.88 643.054 4963.14 611.551 4998.86 588.818C5034.59 566.085 5074.86 554.718 5119.67 554.718C5145.66 554.718 5169.36 558.615 5190.8 566.409C5212.23 573.554 5231.07 583.947 5247.31 597.587C5263.55 611.227 5276.86 626.815 5287.25 644.353C5298.29 661.89 5305.76 680.726 5309.66 700.862L5283.36 694.042V565.435H5404.17V1078.89H5282.38V956.126L5310.64 951.254C5306.09 968.792 5297.65 986.004 5285.3 1002.89C5273.61 1019.13 5258.67 1033.74 5240.49 1046.74C5222.95 1059.08 5203.14 1069.14 5181.06 1076.94C5159.62 1084.73 5136.56 1088.63 5111.88 1088.63ZM5145.01 982.432C5172.94 982.432 5197.62 975.612 5219.05 961.972C5240.49 948.332 5257.05 929.495 5268.74 905.463C5281.08 880.781 5287.25 852.526 5287.25 820.699C5287.25 789.522 5281.08 761.917 5268.74 737.885C5257.05 713.852 5240.49 695.016 5219.05 681.376C5197.62 667.736 5172.94 660.916 5145.01 660.916C5117.08 660.916 5092.39 667.736 5070.96 681.376C5050.18 695.016 5033.94 713.852 5022.25 737.885C5010.55 761.917 5004.71 789.522 5004.71 820.699C5004.71 852.526 5010.55 880.781 5022.25 905.463C5033.94 929.495 5050.18 948.332 5070.96 961.972C5092.39 975.612 5117.08 982.432 5145.01 982.432Z" fill="white"/>
<path d="M4293.84 1293.23V565.435H4411.73L4413.68 682.35L4393.22 673.581C4397.12 653.446 4408.16 634.609 4426.35 617.072C4444.53 598.885 4466.62 584.271 4492.6 573.229C4519.23 562.187 4546.83 556.666 4575.41 556.666C4620.88 556.666 4661.15 568.033 4696.22 590.766C4731.95 613.5 4759.88 644.677 4780.01 684.298C4800.8 723.919 4811.19 769.711 4811.19 821.673C4811.19 872.986 4800.8 918.778 4780.01 959.048C4759.88 998.67 4731.95 1030.17 4696.22 1053.55C4661.15 1076.29 4621.53 1087.65 4577.36 1087.65C4547.48 1087.65 4518.58 1081.81 4490.65 1070.12C4463.37 1058.43 4439.99 1043.16 4420.5 1024.33C4401.66 1005.49 4389.97 985.679 4385.43 964.894L4414.65 951.254V1293.23H4293.84ZM4553 981.457C4580.28 981.457 4604.64 974.637 4626.08 960.997C4647.51 947.357 4664.07 928.521 4675.76 904.488C4688.11 880.456 4694.28 852.851 4694.28 821.673C4694.28 790.496 4688.43 763.216 4676.74 739.833C4665.05 715.8 4648.48 696.964 4627.05 683.324C4605.62 669.684 4580.93 662.864 4553 662.864C4524.42 662.864 4499.42 669.684 4477.98 683.324C4457.2 696.315 4440.64 714.826 4428.29 738.859C4415.95 762.891 4409.78 790.496 4409.78 821.673C4409.78 852.851 4415.95 880.456 4428.29 904.488C4440.64 928.521 4457.2 947.357 4477.98 960.997C4499.42 974.637 4524.42 981.457 4553 981.457Z" fill="white"/>
<path d="M4107.48 1089.6C4084.09 1089.6 4065.91 1082.78 4052.92 1069.14C4040.57 1055.5 4034.4 1036.34 4034.4 1011.66C4034.4 988.928 4040.9 970.416 4053.89 956.126C4067.53 941.187 4085.39 933.718 4107.48 933.718C4130.86 933.718 4148.72 940.538 4161.06 954.178C4174.05 967.168 4180.55 986.329 4180.55 1011.66C4180.55 1034.39 4173.73 1053.23 4160.09 1068.17C4147.1 1082.46 4129.56 1089.6 4107.48 1089.6Z" fill="white"/>
<path d="M3760.29 1088.63C3714.82 1088.63 3673.9 1081.16 3637.53 1066.22C3601.8 1050.63 3572.57 1028.55 3549.84 999.969L3627.78 932.743C3647.27 954.827 3669.03 970.74 3693.06 980.483C3717.09 990.226 3742.42 995.098 3769.06 995.098C3780.1 995.098 3789.84 993.799 3798.28 991.2C3807.38 988.602 3815.17 984.705 3821.67 979.509C3828.16 974.313 3833.03 968.467 3836.28 961.972C3840.18 954.827 3842.13 947.033 3842.13 938.589C3842.13 923 3836.28 910.659 3824.59 901.566C3818.09 897.019 3807.7 892.147 3793.41 886.951C3779.77 881.755 3761.91 876.559 3739.83 871.363C3704.75 862.269 3675.52 851.877 3652.14 840.185C3628.76 827.844 3610.57 814.204 3597.58 799.265C3586.54 786.924 3578.09 772.959 3572.25 757.37C3567.05 741.782 3564.45 724.894 3564.45 706.707C3564.45 683.974 3569.33 663.514 3579.07 645.327C3589.46 626.491 3603.43 610.252 3620.96 596.612C3638.5 582.972 3658.96 572.58 3682.34 565.435C3705.73 558.29 3730.08 554.718 3755.42 554.718C3781.4 554.718 3806.4 557.965 3830.44 564.461C3855.12 570.956 3877.85 580.374 3898.64 592.715C3920.07 604.407 3938.26 618.696 3953.2 635.584L3886.94 708.656C3874.6 696.964 3860.96 686.572 3846.02 677.479C3831.73 668.385 3817.12 661.24 3802.18 656.044C3787.24 650.198 3773.28 647.275 3760.29 647.275C3747.95 647.275 3736.9 648.575 3727.16 651.173C3717.42 653.121 3709.3 656.369 3702.8 660.916C3696.31 665.462 3691.11 671.308 3687.21 678.453C3683.97 684.948 3682.34 692.742 3682.34 701.836C3682.99 709.63 3684.94 717.1 3688.19 724.245C3692.09 730.74 3697.28 736.261 3703.78 740.808C3710.92 745.354 3721.64 750.55 3735.93 756.396C3750.22 762.242 3768.73 767.763 3791.46 772.959C3823.29 781.403 3849.92 790.821 3871.36 801.214C3892.79 811.606 3909.68 823.622 3922.02 837.262C3934.36 848.954 3943.13 862.594 3948.33 878.183C3953.52 893.771 3956.12 910.984 3956.12 929.82C3956.12 960.348 3947.35 987.628 3929.81 1011.66C3912.93 1035.69 3889.54 1054.53 3859.66 1068.17C3830.44 1081.81 3797.31 1088.63 3760.29 1088.63Z" fill="white"/>
<path d="M3283.8 1088.63C3235.73 1088.63 3192.54 1076.94 3154.22 1053.56C3115.9 1030.17 3085.69 998.345 3063.61 958.075C3041.52 917.804 3030.48 872.337 3030.48 821.674C3030.48 771.011 3041.52 725.544 3063.61 685.273C3085.69 645.002 3115.9 613.175 3154.22 589.792C3192.54 566.409 3235.73 554.718 3283.8 554.718C3329.91 554.718 3371.81 563.486 3409.48 581.024C3447.15 598.561 3476.38 622.918 3497.17 654.096L3430.92 733.987C3421.17 720.347 3408.83 708.006 3393.89 696.964C3378.95 685.922 3363.04 677.154 3346.15 670.658C3329.27 664.163 3312.38 660.916 3295.49 660.916C3266.91 660.916 3241.25 668.06 3218.52 682.35C3196.44 695.99 3178.9 715.151 3165.91 739.833C3152.92 763.866 3146.42 791.146 3146.42 821.674C3146.42 852.202 3152.92 879.482 3165.91 903.514C3179.55 927.547 3197.74 946.708 3220.47 960.997C3243.2 975.287 3268.53 982.432 3296.46 982.432C3313.35 982.432 3329.59 979.834 3345.18 974.637C3361.42 968.792 3376.68 960.673 3390.97 950.28C3405.26 939.888 3418.58 926.897 3430.92 911.309L3497.17 992.175C3475.08 1020.75 3444.56 1044.14 3405.58 1062.32C3367.26 1079.86 3326.67 1088.63 3283.8 1088.63Z" fill="white"/>
<path d="M2690.43 1088.63C2639.12 1088.63 2593.33 1077.26 2553.06 1054.53C2512.79 1031.15 2480.96 999.32 2457.58 959.049C2434.19 918.778 2422.5 872.986 2422.5 821.674C2422.5 770.361 2434.19 724.569 2457.58 684.299C2480.96 644.028 2512.79 612.526 2553.06 589.792C2593.33 566.409 2639.12 554.718 2690.43 554.718C2741.1 554.718 2786.56 566.409 2826.83 589.792C2867.1 612.526 2898.61 644.028 2921.34 684.299C2944.72 724.569 2956.41 770.361 2956.41 821.674C2956.41 872.986 2944.72 918.778 2921.34 959.049C2898.61 999.32 2867.1 1031.15 2826.83 1054.53C2786.56 1077.26 2741.1 1088.63 2690.43 1088.63ZM2690.43 982.432C2718.36 982.432 2743.04 975.287 2764.48 960.997C2786.56 946.708 2803.77 927.547 2816.12 903.514C2829.11 879.482 2835.28 852.202 2834.63 821.674C2835.28 790.496 2829.11 762.891 2816.12 738.859C2803.77 714.826 2786.56 695.99 2764.48 682.35C2743.04 668.06 2718.36 660.916 2690.43 660.916C2662.5 660.916 2637.17 668.06 2614.44 682.35C2592.35 695.99 2575.14 715.151 2562.8 739.833C2550.46 763.866 2544.29 791.146 2544.29 821.674C2544.29 852.202 2550.46 879.482 2562.8 903.514C2575.14 927.547 2592.35 946.708 2614.44 960.997C2637.17 975.287 2662.5 982.432 2690.43 982.432Z" fill="white"/>
<path d="M2038.02 1088.63C1992.55 1088.63 1951.63 1077.26 1915.26 1054.53C1879.54 1031.15 1850.96 999.645 1829.52 960.023C1808.74 919.753 1798.35 873.636 1798.35 821.674C1798.35 770.361 1808.74 724.569 1829.52 684.299C1850.31 644.028 1878.56 612.526 1914.29 589.793C1950.66 566.41 1991.58 554.718 2037.05 554.718C2061.73 554.718 2085.44 558.615 2108.17 566.41C2131.55 574.204 2152.34 584.921 2170.53 598.561C2188.71 611.552 2203 626.166 2213.39 642.404C2224.44 658.642 2230.61 675.53 2231.91 693.067L2199.75 696.965V357.911H2319.59V1078.89H2203.65L2200.73 958.075L2224.11 960.023C2223.46 976.262 2217.62 991.85 2206.57 1006.79C2196.18 1021.73 2182.54 1035.37 2165.65 1047.71C2148.77 1060.05 2128.96 1070.12 2106.22 1077.91C2084.14 1085.06 2061.4 1088.63 2038.02 1088.63ZM2061.4 987.303C2089.33 987.303 2114.02 980.159 2135.45 965.869C2156.89 951.579 2173.45 932.094 2185.14 907.412C2197.48 882.73 2203.65 854.15 2203.65 821.674C2203.65 789.847 2197.48 761.593 2185.14 736.911C2173.45 711.579 2156.89 692.093 2135.45 678.453C2114.02 664.163 2089.33 657.019 2061.4 657.019C2033.47 657.019 2008.79 664.163 1987.36 678.453C1965.92 692.093 1949.04 711.579 1936.7 736.911C1925 761.593 1919.16 789.847 1919.16 821.674C1919.16 854.15 1925 882.73 1936.7 907.412C1949.04 932.094 1965.92 951.579 1987.36 965.869C2008.79 980.159 2033.47 987.303 2061.4 987.303Z" fill="white"/>
</svg>
