<svg width="453" height="500" viewBox="0 0 453 500" fill="none" xmlns="http://www.w3.org/2000/svg">
<path fill-rule="evenodd" clip-rule="evenodd" d="M190.522 9.52639C212.537 -3.17704 239.658 -3.17389 261.673 9.52639L416.621 98.9536C438.639 111.67 452.194 135.176 452.194 160.606V339.393C452.194 364.822 438.639 388.329 416.621 401.045L261.673 490.472C239.658 503.176 212.54 503.176 190.522 490.472L35.6081 401.045C13.5795 388.332 0.00166472 364.829 0 339.393V160.606C4.52108e-05 135.17 13.5792 111.67 35.6081 98.9536L190.522 9.52639ZM379.809 131.239C379.809 116.846 364.228 107.85 351.764 115.047L264.329 165.525C257.718 169.342 253.645 176.396 253.645 184.031L253.644 255.489C253.644 265.032 248.553 273.85 240.289 278.621L185.386 310.32C177.122 315.091 172.031 323.909 172.031 333.452L172.032 426.346C172.032 440.739 187.614 449.735 200.078 442.539L363.783 348.024C373.7 342.298 379.809 331.716 379.809 320.265V131.239ZM280.163 73.6534C280.162 59.2606 264.582 50.2651 252.117 57.4611L88.411 151.977C78.4938 157.703 72.3846 168.284 72.3845 179.736V368.762C72.3845 383.155 87.9653 392.151 100.43 384.955L122.283 372.339C130.486 367.603 135.539 358.85 135.539 349.378V313.441C135.539 304.709 137.934 296.145 142.464 288.681L228.096 147.579C230.64 143.388 234.199 139.904 238.446 137.453L268.232 120.256C275.615 115.993 280.163 108.115 280.163 99.5902V73.6534Z" fill="#E69135"/>
</svg>
