<svg xmlns="http://www.w3.org/2000/svg" width="459" height="533" fill="none"><g filter="url(#filter0_d_262_362)"><path fill="url(#paint0_linear_262_362)" d="M200.693 529H4.813V19.91h193.892c52.367 0 97.608 10.19 135.724 30.574 38.281 20.218 67.779 49.385 88.494 87.5 20.881 37.95 31.321 83.44 31.321 136.471 0 53.03-10.357 98.603-31.072 136.718-20.715 37.95-50.047 67.117-87.997 87.5C297.225 518.891 252.398 529 200.693 529Zm-57.67-117.33h52.699c25.189 0 46.65-4.06 64.382-12.18 17.897-8.12 31.486-22.124 40.767-42.01 9.446-19.886 14.169-47.561 14.169-83.025 0-35.464-4.806-63.14-14.418-83.026-9.446-19.886-23.366-33.89-41.761-42.01-18.229-8.12-40.602-12.18-67.117-12.18h-48.721V411.67Z"/><path fill="#F3F3F3" d="M123 4H25v163l49-49 49 49V4Z"/></g><defs><linearGradient id="paint0_linear_262_362" x1="148.37" x2="148.378" y1="-5989.75" y2="9880.56" gradientUnits="userSpaceOnUse"><stop stop-color="#ECC918"/><stop offset="0.5" stop-color="#ECB118"/></linearGradient><filter id="filter0_d_262_362" width="457.432" height="533" x="0.8125" y="0" color-interpolation-filters="sRGB" filterUnits="userSpaceOnUse"><feFlood flood-opacity="0" result="BackgroundImageFix"/><feColorMatrix in="SourceAlpha" result="hardAlpha" values="0 0 0 0 0 0 0 0 0 0 0 0 0 0 0 0 0 0 127 0"/><feOffset/><feGaussianBlur stdDeviation="2"/><feComposite in2="hardAlpha" operator="out"/><feColorMatrix values="0 0 0 0 0 0 0 0 0 0 0 0 0 0 0 0 0 0 0.15 0"/><feBlend in2="BackgroundImageFix" result="effect1_dropShadow_262_362"/><feBlend in="SourceGraphic" in2="effect1_dropShadow_262_362" result="shape"/></filter></defs></svg>