<svg width="44" height="44" viewBox="0 0 44 44" fill="none" xmlns="http://www.w3.org/2000/svg">
<g clip-path="url(#clip0_3283_2930)">
<rect width="44" height="44" rx="22" fill="#040406"/>
<rect width="44" height="44" rx="22" fill="url(#paint0_linear_3283_2930)"/>
<g opacity="0.4" filter="url(#filter0_f_3283_2930)">
<ellipse cx="22" cy="43" rx="17" ry="7" fill="#C98D55"/>
</g>
<path d="M19.1343 27.0093C19.1343 26.5193 19.3289 26.0492 19.6753 25.7027C20.0218 25.3562 20.4919 25.1608 20.9819 25.1607H21.1538C21.4578 25.1606 21.7495 25.0397 21.9644 24.8248L22.7769 24.0123L22.8677 23.9332C23.0919 23.7651 23.3882 23.7172 23.6577 23.8111C24.8631 24.2309 26.1751 24.229 27.3794 23.8062C28.5838 23.3833 29.6092 22.5643 30.2876 21.483C30.9659 20.4017 31.2571 19.1224 31.1138 17.8541C30.9704 16.5857 30.4011 15.4031 29.4985 14.5005C28.5959 13.5979 27.4134 13.0287 26.145 12.8853C24.8767 12.742 23.5974 13.0332 22.5161 13.7115C21.4348 14.3898 20.6157 15.4153 20.1929 16.6197C19.7701 17.824 19.7682 19.136 20.188 20.3414C20.2952 20.6492 20.2172 20.9916 19.9868 21.2222L13.1851 28.023C12.9702 28.2378 12.8493 28.5297 12.8491 28.8335V31.0015C12.8491 31.0408 12.8653 31.0782 12.8931 31.106C12.9208 31.1338 12.9583 31.1499 12.9976 31.15H15.9917C16.0309 31.15 16.0684 31.1337 16.0962 31.106C16.124 31.0782 16.1401 31.0408 16.1401 31.0015V30.0035C16.1401 29.5134 16.3347 29.0434 16.6812 28.6968C17.0277 28.3503 17.4977 28.1549 17.9878 28.1548H18.9858C19.0251 28.1548 19.0635 28.1396 19.0913 28.1119C19.1189 28.0842 19.1342 28.0465 19.1343 28.0074V27.0093ZM20.8345 28.0074C20.8344 28.4975 20.639 28.9675 20.2925 29.314C19.9459 29.6604 19.4759 29.855 18.9858 29.855H17.9878C17.9486 29.8551 17.911 29.8713 17.8833 29.899C17.8556 29.9267 17.8403 29.9643 17.8403 30.0035V31.0015C17.8403 31.4916 17.6449 31.9616 17.2983 32.3082C16.9518 32.6547 16.4818 32.8492 15.9917 32.8492H12.9976C12.5074 32.8492 12.0375 32.6547 11.6909 32.3082C11.3443 31.9616 11.1499 31.4916 11.1499 31.0015V28.8335C11.1501 28.0788 11.4501 27.3545 11.9839 26.8209L18.4243 20.3794C18.0449 18.9585 18.0984 17.4518 18.5884 16.0562C19.1388 14.4887 20.2055 13.154 21.6128 12.271C23.0201 11.3883 24.6857 11.0093 26.3364 11.1959C27.9872 11.3825 29.526 12.1237 30.7007 13.2984C31.8754 14.4731 32.6166 16.0119 32.8032 17.6626C32.9898 19.3133 32.6107 20.979 31.728 22.3863C30.8451 23.7936 29.5104 24.8603 27.9429 25.4107C26.5469 25.9008 25.04 25.9535 23.6187 25.5738L23.1665 26.0269C22.6329 26.5607 21.9086 26.8607 21.1538 26.8609H20.9819C20.9428 26.861 20.9051 26.8772 20.8774 26.9048C20.8499 26.9326 20.8345 26.9702 20.8345 27.0093V28.0074Z" fill="#E2AB63"/>
<path d="M26.4718 18.0261C26.7475 18.0261 26.9709 17.8027 26.9709 17.5271C26.9709 17.2515 26.7475 17.028 26.4718 17.028C26.1962 17.028 25.9728 17.2515 25.9728 17.5271C25.9728 17.8027 26.1962 18.0261 26.4718 18.0261Z" fill="#E2AB63"/>
<path d="M26.4718 17.1765C26.278 17.1765 26.1212 17.3332 26.1212 17.5271L26.1281 17.5974C26.1606 17.7575 26.3021 17.8776 26.4718 17.8776C26.6656 17.8776 26.8224 17.7209 26.8224 17.5271C26.8224 17.3573 26.7022 17.2159 26.5421 17.1833L26.4718 17.1765ZM27.8204 17.5271C27.8204 18.2721 27.2169 18.8757 26.4718 18.8757C25.7268 18.8757 25.1232 18.2721 25.1232 17.5271C25.1232 16.782 25.7268 16.1784 26.4718 16.1784C27.2169 16.1784 27.8204 16.782 27.8204 17.5271Z" fill="#E2AB63"/>
</g>
<rect x="0.5" y="0.5" width="43" height="43" rx="21.5" stroke="url(#paint1_linear_3283_2930)"/>
<defs>
<filter id="filter0_f_3283_2930" x="-9" y="22" width="62" height="42" filterUnits="userSpaceOnUse" color-interpolation-filters="sRGB">
<feFlood flood-opacity="0" result="BackgroundImageFix"/>
<feBlend mode="normal" in="SourceGraphic" in2="BackgroundImageFix" result="shape"/>
<feGaussianBlur stdDeviation="7" result="effect1_foregroundBlur_3283_2930"/>
</filter>
<linearGradient id="paint0_linear_3283_2930" x1="22" y1="0" x2="22" y2="44" gradientUnits="userSpaceOnUse">
<stop stop-color="#3B3B47"/>
<stop offset="1" stop-color="#040406"/>
</linearGradient>
<linearGradient id="paint1_linear_3283_2930" x1="22" y1="0" x2="22" y2="44" gradientUnits="userSpaceOnUse">
<stop stop-color="#515161"/>
<stop offset="1" stop-color="#213131" stop-opacity="0"/>
</linearGradient>
<clipPath id="clip0_3283_2930">
<rect width="44" height="44" rx="22" fill="white"/>
</clipPath>
</defs>
</svg>
