<svg width="44" height="44" viewBox="0 0 44 44" fill="none" xmlns="http://www.w3.org/2000/svg">
<g clip-path="url(#clip0_3283_3095)">
<rect width="44" height="44" rx="22" fill="#040406"/>
<rect width="44" height="44" rx="22" fill="url(#paint0_linear_3283_3095)"/>
<g filter="url(#filter0_d_3283_3095)">
<path d="M17.8164 28.667C17.8164 27.2955 16.7045 26.1836 15.333 26.1836C13.9617 26.1838 12.8496 27.2956 12.8496 28.667C12.8498 30.0382 13.9618 31.1502 15.333 31.1504C16.7044 31.1504 17.8162 30.0383 17.8164 28.667ZM31.1504 15.333C31.1502 13.9618 30.0382 12.8498 28.667 12.8496C27.2956 12.8496 26.1838 13.9617 26.1836 15.333C26.1836 16.7045 27.2955 17.8164 28.667 17.8164C30.0383 17.8162 31.1504 16.7044 31.1504 15.333ZM32.8496 15.333C32.8496 17.6433 30.9772 19.5164 28.667 19.5166C26.6597 19.5166 24.9827 18.1029 24.5771 16.2168C22.4274 16.395 20.4001 17.3265 18.8633 18.8633C17.3265 20.4001 16.395 22.4274 16.2168 24.5771C18.1029 24.9827 19.5166 26.6597 19.5166 28.667C19.5164 30.9772 17.6433 32.8496 15.333 32.8496C13.0229 32.8494 11.1506 30.9771 11.1504 28.667C11.1504 26.6478 12.5805 24.962 14.4834 24.5693V12C14.4834 11.5307 14.8637 11.1506 15.333 11.1504C15.8024 11.1504 16.1836 11.5306 16.1836 12V19.5078C16.6051 18.8458 17.0975 18.2248 17.6611 17.6611C19.5136 15.8086 21.9673 14.6983 24.5635 14.5137C24.9445 12.5957 26.6371 11.1504 28.667 11.1504C30.9771 11.1506 32.8494 13.0229 32.8496 15.333Z" fill="#AB95F2"/>
</g>
<g opacity="0.7" filter="url(#filter1_f_3283_3095)">
<ellipse cx="22" cy="43.5" rx="17" ry="8.5" fill="#7B7B9C"/>
</g>
</g>
<rect x="0.5" y="0.5" width="43" height="43" rx="21.5" stroke="url(#paint1_linear_3283_3095)"/>
<defs>
<filter id="filter0_d_3283_3095" x="6.15039" y="6.15039" width="31.6992" height="31.6992" filterUnits="userSpaceOnUse" color-interpolation-filters="sRGB">
<feFlood flood-opacity="0" result="BackgroundImageFix"/>
<feColorMatrix in="SourceAlpha" type="matrix" values="0 0 0 0 0 0 0 0 0 0 0 0 0 0 0 0 0 0 127 0" result="hardAlpha"/>
<feOffset/>
<feGaussianBlur stdDeviation="2.5"/>
<feComposite in2="hardAlpha" operator="out"/>
<feColorMatrix type="matrix" values="0 0 0 0 0.670588 0 0 0 0 0.584314 0 0 0 0 0.94902 0 0 0 0.5 0"/>
<feBlend mode="normal" in2="BackgroundImageFix" result="effect1_dropShadow_3283_3095"/>
<feBlend mode="normal" in="SourceGraphic" in2="effect1_dropShadow_3283_3095" result="shape"/>
</filter>
<filter id="filter1_f_3283_3095" x="-9" y="21" width="62" height="45" filterUnits="userSpaceOnUse" color-interpolation-filters="sRGB">
<feFlood flood-opacity="0" result="BackgroundImageFix"/>
<feBlend mode="normal" in="SourceGraphic" in2="BackgroundImageFix" result="shape"/>
<feGaussianBlur stdDeviation="7" result="effect1_foregroundBlur_3283_3095"/>
</filter>
<linearGradient id="paint0_linear_3283_3095" x1="22" y1="0" x2="22" y2="44" gradientUnits="userSpaceOnUse">
<stop stop-color="#3B3B47"/>
<stop offset="1" stop-color="#040406"/>
</linearGradient>
<linearGradient id="paint1_linear_3283_3095" x1="22" y1="0" x2="22" y2="44" gradientUnits="userSpaceOnUse">
<stop stop-color="#515161"/>
<stop offset="1" stop-color="#213131" stop-opacity="0"/>
</linearGradient>
<clipPath id="clip0_3283_3095">
<rect width="44" height="44" rx="22" fill="white"/>
</clipPath>
</defs>
</svg>
