<svg width="6330" height="1104" viewBox="0 0 6330 1104" fill="none" xmlns="http://www.w3.org/2000/svg">
<path d="M859.432 0C933.549 4.17619e-05 993.634 60.0845 993.634 134.202V428.424C993.633 502.54 933.55 562.623 859.434 562.624L810.796 562.625C791.769 601.405 751.896 628.103 705.785 628.104C641.221 628.104 588.881 575.764 588.881 511.2C588.881 446.636 641.221 394.297 705.785 394.297C752.019 394.297 791.982 421.137 810.948 460.085L859.432 460.084C876.918 460.083 891.093 445.909 891.094 428.424V134.202C891.093 116.716 876.918 102.54 859.432 102.54H575.8C558.314 102.54 544.138 116.716 544.138 134.202V969.525C544.138 1043.64 484.052 1103.73 409.935 1103.73H134.202C60.0846 1103.73 3.75795e-05 1043.64 0 969.525V675.285C0.000391539 601.208 59.9961 541.082 134.153 541.082H175.019C194.721 504.328 233.5 479.329 278.119 479.329C342.683 479.329 395.022 531.669 395.022 596.233C395.022 660.797 342.683 713.137 278.119 713.137C230.425 713.137 189.403 684.574 171.222 643.622H134.153C116.707 643.622 102.54 657.759 102.54 675.285V969.525C102.54 987.012 116.716 1001.19 134.202 1001.19H409.935C427.421 1001.19 441.598 987.012 441.598 969.525V134.202C441.598 60.0852 501.683 0.000460617 575.8 0H859.432ZM278.119 556.859C256.374 556.859 238.746 574.488 238.746 596.233C238.746 617.978 256.374 635.606 278.119 635.606C299.864 635.606 317.492 617.978 317.492 596.233C317.492 574.488 299.864 556.859 278.119 556.859ZM705.785 471.826C684.04 471.826 666.411 489.455 666.411 511.2C666.411 532.945 684.04 550.573 705.785 550.573C727.53 550.573 745.158 532.945 745.158 511.2C745.158 489.455 727.53 471.826 705.785 471.826Z" fill="#5368BD"/>
<path d="M6094 837.525C6038.48 837.525 5989.13 825.873 5945.94 802.567C5903.44 778.576 5869.86 746.016 5845.18 704.889C5821.19 663.761 5809.19 616.464 5809.19 562.998C5809.19 520.5 5816.05 481.771 5829.76 446.813C5843.47 411.854 5862.32 381.694 5886.31 356.332C5910.98 330.284 5940.12 310.406 5973.7 296.696C6007.98 282.302 6044.99 275.104 6084.75 275.104C6119.71 275.104 6152.27 281.959 6182.43 295.668C6212.59 308.692 6238.63 326.857 6260.57 350.162C6283.19 373.468 6300.33 401.229 6311.98 433.446C6324.32 464.977 6330.14 499.593 6329.46 537.293L6328.43 582.534H5887.34L5863.69 498.222H6236.92L6221.5 515.701V491.025C6219.44 468.405 6211.9 448.183 6198.88 430.361C6185.85 412.539 6169.4 398.487 6149.52 388.206C6129.65 377.924 6108.05 372.783 6084.75 372.783C6047.73 372.783 6016.54 379.98 5991.18 394.375C5965.82 408.084 5946.63 428.648 5933.6 456.066C5920.58 482.799 5914.07 516.044 5914.07 555.801C5914.07 593.501 5921.95 626.403 5937.72 654.507C5953.48 681.926 5975.76 703.175 6004.55 718.255C6033.34 733.335 6066.58 740.875 6104.28 740.875C6131.02 740.875 6155.69 736.42 6178.31 727.509C6201.62 718.598 6226.64 702.49 6253.37 679.184L6306.84 754.242C6290.39 770.693 6270.17 785.088 6246.17 797.426C6222.87 809.764 6197.85 819.704 6171.12 827.244C6145.07 834.098 6119.36 837.525 6094 837.525Z" fill="white"/>
<path d="M5416 1063.73C5377.61 1063.73 5339.23 1057.56 5300.84 1045.22C5263.14 1033.57 5232.64 1018.14 5209.33 998.952L5248.4 916.697C5262.11 926.978 5278.22 935.889 5296.73 943.429C5315.23 951.655 5334.77 957.824 5355.33 961.937C5375.9 966.735 5396.12 969.134 5416 969.134C5453.7 969.134 5485.23 962.965 5510.59 950.627C5535.95 938.289 5555.15 920.124 5568.17 896.133C5581.19 872.142 5587.71 842.324 5587.71 806.68V702.832L5599.02 710.03C5595.59 731.279 5584.28 751.843 5565.08 771.721C5546.58 790.914 5523.27 806.68 5495.17 819.018C5467.06 831.356 5438.27 837.526 5408.8 837.526C5357.39 837.526 5311.46 825.53 5271.02 801.539C5231.27 776.862 5199.73 743.617 5176.43 701.804C5153.12 659.306 5141.47 610.981 5141.47 556.829C5141.47 502.678 5152.78 454.696 5175.4 412.882C5198.71 370.384 5230.24 337.139 5269.99 313.148C5310.44 288.471 5355.68 276.133 5405.72 276.133C5426.28 276.133 5446.16 278.875 5465.35 284.358C5484.54 289.157 5502.37 296.354 5518.82 305.95C5535.27 314.861 5550 324.801 5563.03 335.768C5576.05 346.735 5586.68 358.388 5594.9 370.726C5603.13 383.065 5608.27 394.718 5610.33 405.685L5587.71 413.911V287.443H5693.61V794.342C5693.61 837.526 5687.1 875.569 5674.07 908.471C5661.73 942.059 5643.57 970.162 5619.58 992.783C5595.59 1016.09 5566.46 1033.57 5532.18 1045.22C5497.91 1057.56 5459.18 1063.73 5416 1063.73ZM5420.11 739.847C5453.7 739.847 5483.51 731.965 5509.56 716.199C5535.61 700.433 5555.83 678.841 5570.23 651.423C5584.62 624.004 5591.82 592.473 5591.82 556.829C5591.82 521.185 5584.28 489.654 5569.2 462.236C5554.8 434.132 5534.58 412.197 5508.53 396.431C5483.17 380.666 5453.7 372.783 5420.11 372.783C5387.21 372.783 5357.73 381.008 5331.69 397.459C5306.32 413.225 5286.1 435.16 5271.02 463.264C5256.63 490.682 5249.43 521.871 5249.43 556.829C5249.43 591.788 5256.63 623.319 5271.02 651.423C5286.1 678.841 5306.32 700.433 5331.69 716.199C5357.73 731.965 5387.21 739.847 5420.11 739.847Z" fill="white"/>
<path d="M4731.41 837.526C4686.86 837.526 4646.07 825.187 4609.06 800.511C4572.73 775.834 4543.6 742.247 4521.66 699.748C4499.73 657.249 4488.76 609.267 4488.76 555.801C4488.76 501.65 4499.73 453.667 4521.66 411.854C4544.28 369.356 4574.44 336.111 4612.14 312.119C4650.53 288.128 4693.37 276.133 4740.67 276.133C4768.77 276.133 4794.48 280.246 4817.78 288.471C4841.09 296.697 4861.31 308.349 4878.45 323.43C4896.27 337.824 4910.66 354.618 4921.63 373.811C4933.28 393.004 4940.48 413.568 4943.22 435.503L4919.57 427.277V287.443H5026.51V827.244H4919.57V698.72L4944.25 691.522C4940.14 710.03 4931.57 728.195 4918.54 746.017C4906.21 763.153 4890.1 778.576 4870.22 792.285C4851.03 805.994 4829.43 816.962 4805.44 825.187C4782.14 833.413 4757.46 837.526 4731.41 837.526ZM4759.18 739.847C4791.39 739.847 4819.84 731.965 4844.52 716.199C4869.19 700.433 4888.38 678.841 4902.09 651.423C4916.49 623.319 4923.69 591.445 4923.69 555.801C4923.69 520.843 4916.49 489.654 4902.09 462.236C4888.38 434.817 4869.19 413.225 4844.52 397.459C4819.84 381.694 4791.39 373.811 4759.18 373.811C4727.64 373.811 4699.54 381.694 4674.86 397.459C4650.87 413.225 4631.68 434.817 4617.28 462.236C4603.58 489.654 4596.72 520.843 4596.72 555.801C4596.72 591.445 4603.58 623.319 4617.28 651.423C4631.68 678.841 4650.87 700.433 4674.86 716.199C4699.54 731.965 4727.64 739.847 4759.18 739.847Z" fill="white"/>
<path d="M3875.07 1053.45V287.442H3982.01V410.825L3965.56 401.572C3969.67 381.008 3981.32 361.472 4000.51 342.965C4019.71 323.772 4043.01 308.349 4070.43 296.696C4098.53 284.358 4127.32 278.188 4156.8 278.188C4205.47 278.188 4248.65 290.184 4286.35 314.175C4324.05 338.166 4353.87 371.069 4375.8 412.882C4397.74 454.695 4408.71 502.677 4408.71 556.829C4408.71 610.295 4397.74 658.277 4375.8 700.775C4354.55 742.589 4325.08 775.833 4287.38 800.51C4249.68 824.501 4207.18 836.497 4159.88 836.497C4128.35 836.497 4097.85 830.328 4068.37 817.989C4038.9 804.966 4013.88 788.514 3993.32 768.636C3972.75 748.758 3960.07 728.194 3955.27 706.945L3982.01 692.55V1053.45H3875.07ZM4142.4 738.819C4173.94 738.819 4202.04 730.936 4226.72 715.17C4251.39 699.404 4270.93 677.812 4285.32 650.394C4299.72 622.976 4306.92 591.787 4306.92 556.829C4306.92 521.87 4299.72 491.024 4285.32 464.291C4271.61 436.873 4252.42 415.281 4227.74 399.515C4203.07 383.75 4174.62 375.867 4142.4 375.867C4110.19 375.867 4081.74 383.75 4057.06 399.515C4032.39 414.595 4012.85 435.845 3998.46 463.263C3984.06 490.682 3976.87 521.87 3976.87 556.829C3976.87 591.787 3984.06 622.976 3998.46 650.394C4012.85 677.812 4032.39 699.404 4057.06 715.17C4081.74 730.936 4110.19 738.819 4142.4 738.819Z" fill="white"/>
<path d="M3684.3 838.554C3661.68 838.554 3644.21 832.042 3631.87 819.018C3619.53 805.309 3613.36 786.116 3613.36 761.44C3613.36 738.819 3619.87 720.312 3632.9 705.917C3645.92 691.523 3663.06 684.325 3684.3 684.325C3706.92 684.325 3724.4 691.18 3736.74 704.889C3749.08 717.913 3755.25 736.763 3755.25 761.44C3755.25 784.06 3748.74 802.567 3735.71 816.962C3722.69 831.357 3705.55 838.554 3684.3 838.554Z" fill="white"/>
<path d="M3329.05 837.526C3283.81 837.526 3243.02 829.643 3206.69 813.877C3170.36 798.112 3140.2 774.806 3116.21 743.96L3188.19 682.269C3208.75 706.26 3231.03 723.739 3255.02 734.706C3279.7 744.988 3307.46 750.129 3338.3 750.129C3350.64 750.129 3361.95 748.758 3372.23 746.017C3383.2 742.589 3392.45 737.791 3399.99 731.622C3408.22 725.453 3414.39 718.255 3418.5 710.03C3422.61 701.119 3424.67 691.522 3424.67 681.24C3424.67 663.418 3418.16 649.024 3405.13 638.056C3398.28 633.258 3387.31 628.117 3372.23 622.634C3357.84 616.464 3338.99 610.295 3315.68 604.126C3275.93 593.844 3243.37 582.191 3218 569.168C3192.64 556.144 3173.11 541.406 3159.4 524.955C3149.12 511.932 3141.57 497.88 3136.78 482.799C3131.98 467.034 3129.58 449.897 3129.58 431.39C3129.58 408.77 3134.38 388.206 3143.97 369.698C3154.26 350.505 3167.97 334.054 3185.1 320.345C3202.92 305.95 3223.49 294.983 3246.79 287.443C3270.78 279.903 3296.15 276.133 3322.88 276.133C3348.24 276.133 3373.26 279.56 3397.94 286.415C3423.3 293.269 3446.61 303.209 3467.85 316.232C3489.1 329.256 3506.93 344.679 3521.32 362.501L3460.66 429.333C3447.63 416.31 3433.24 405 3417.47 395.403C3402.39 385.121 3386.97 377.238 3371.2 371.755C3355.44 366.271 3341.04 363.529 3328.02 363.529C3313.63 363.529 3300.6 364.9 3288.95 367.642C3277.3 370.384 3267.36 374.497 3259.13 379.98C3251.59 385.464 3245.77 392.319 3241.65 400.544C3237.54 408.77 3235.48 418.023 3235.48 428.305C3236.17 437.216 3238.23 445.784 3241.65 454.01C3245.77 461.55 3251.25 468.062 3258.1 473.546C3265.64 479.029 3276.95 484.856 3292.03 491.025C3307.11 497.194 3326.31 503.021 3349.61 508.504C3383.89 517.415 3411.99 527.354 3433.92 538.322C3456.54 548.604 3474.37 560.599 3487.39 574.309C3501.1 587.332 3510.7 602.412 3516.18 619.549C3521.66 636.685 3524.41 655.878 3524.41 677.128C3524.41 707.973 3515.49 735.735 3497.67 760.411C3480.54 784.402 3457.23 803.253 3427.76 816.962C3398.28 830.671 3365.38 837.526 3329.05 837.526Z" fill="white"/>
<path d="M2828.16 837.526C2778.12 837.526 2733.22 825.187 2693.46 800.511C2654.39 775.834 2623.2 742.247 2599.9 699.748C2577.28 657.249 2565.97 609.61 2565.97 556.829C2565.97 504.049 2577.28 456.409 2599.9 413.911C2623.2 371.412 2654.39 337.824 2693.46 313.148C2733.22 288.471 2778.12 276.133 2828.16 276.133C2876.14 276.133 2919.67 286.072 2958.74 305.95C2998.49 325.143 3028.66 351.534 3049.22 385.121L2990.61 457.095C2979.64 441.329 2965.59 426.934 2948.46 413.911C2931.32 400.887 2913.15 390.605 2893.96 383.065C2874.77 375.525 2856.26 371.755 2838.44 371.755C2805.54 371.755 2776.06 379.98 2750.02 396.431C2724.65 412.197 2704.43 434.132 2689.35 462.236C2674.27 490.339 2666.73 521.871 2666.73 556.829C2666.73 591.788 2674.61 623.319 2690.38 651.423C2706.15 678.841 2727.05 700.776 2753.1 717.227C2779.15 733.678 2807.94 741.904 2839.47 741.904C2857.98 741.904 2875.8 738.819 2892.93 732.65C2910.76 726.481 2927.89 717.227 2944.34 704.889C2960.79 692.551 2976.22 677.47 2990.61 659.648L3049.22 731.622C3027.28 762.468 2995.75 787.83 2954.63 807.708C2914.18 827.587 2872.03 837.526 2828.16 837.526Z" fill="white"/>
<path d="M2208.95 837.526C2156.16 837.526 2108.87 825.53 2067.05 801.539C2025.93 776.862 1993.37 743.617 1969.38 701.804C1945.39 659.306 1933.39 610.981 1933.39 556.829C1933.39 502.678 1945.39 454.696 1969.38 412.882C1993.37 370.384 2025.93 337.139 2067.05 313.148C2108.87 288.471 2156.16 276.133 2208.95 276.133C2261.04 276.133 2307.65 288.471 2348.78 313.148C2390.59 337.139 2423.49 370.384 2447.49 412.882C2471.48 454.696 2483.47 502.678 2483.47 556.829C2483.47 610.981 2471.48 659.306 2447.49 701.804C2423.49 743.617 2390.59 776.862 2348.78 801.539C2307.65 825.53 2261.04 837.526 2208.95 837.526ZM2208.95 740.876C2241.16 740.876 2269.95 732.993 2295.31 717.227C2320.68 700.776 2340.55 678.841 2354.95 651.423C2369.34 623.319 2376.2 591.788 2375.51 556.829C2376.2 521.185 2369.34 489.654 2354.95 462.236C2340.55 434.132 2320.68 412.197 2295.31 396.431C2269.95 380.666 2241.16 372.783 2208.95 372.783C2176.73 372.783 2147.6 381.008 2121.55 397.459C2096.19 413.225 2076.31 435.16 2061.91 463.264C2047.52 490.682 2040.66 521.871 2041.35 556.829C2040.66 591.788 2047.52 623.319 2061.91 651.423C2076.31 678.841 2096.19 700.776 2121.55 717.227C2147.6 732.993 2176.73 740.876 2208.95 740.876Z" fill="white"/>
<path d="M1539.81 837.525C1490.46 837.525 1446.24 825.53 1407.17 801.539C1368.79 776.862 1338.28 743.617 1315.66 701.804C1293.04 659.305 1281.73 610.98 1281.73 556.829C1281.73 502.678 1292.7 454.695 1314.64 412.882C1337.26 370.383 1367.76 337.139 1406.14 313.147C1444.53 288.471 1488.06 276.133 1536.73 276.133C1563.46 276.133 1589.16 280.588 1613.84 289.499C1639.2 297.725 1661.82 309.377 1681.7 324.458C1701.58 338.852 1717 354.961 1727.97 372.783C1739.62 389.919 1745.45 407.398 1745.45 425.22L1714.6 427.277V66.3813H1820.51V827.243H1714.6V698.719H1735.17C1735.17 715.171 1729.68 731.622 1718.72 748.073C1707.75 763.838 1693.01 778.576 1674.5 792.285C1656.68 805.994 1635.77 816.961 1611.78 825.187C1588.48 833.413 1564.49 837.525 1539.81 837.525ZM1554.2 746.016C1586.42 746.016 1614.87 737.791 1639.54 721.34C1664.22 704.889 1683.41 682.611 1697.12 654.507C1711.52 625.718 1718.72 593.158 1718.72 556.829C1718.72 520.499 1711.52 488.283 1697.12 460.179C1683.41 431.389 1664.22 408.769 1639.54 392.318C1614.87 375.867 1586.42 367.642 1554.2 367.642C1521.99 367.642 1493.54 375.867 1468.86 392.318C1444.19 408.769 1424.65 431.389 1410.26 460.179C1396.55 488.283 1389.69 520.499 1389.69 556.829C1389.69 593.158 1396.55 625.718 1410.26 654.507C1424.65 682.611 1444.19 704.889 1468.86 721.34C1493.54 737.791 1521.99 746.016 1554.2 746.016Z" fill="white"/>
</svg>
