<svg width="917" height="1014" viewBox="0 0 917 1014" fill="none" xmlns="http://www.w3.org/2000/svg">
<path d="M386.088 20.3643C430.488 -5.25559 485.103 -5.44968 529.662 19.7637L530.713 20.3643L843.49 200.882H843.491C888.247 226.73 915.799 274.51 915.799 326.199V687.099C915.799 738.787 888.247 786.568 843.491 812.416H843.49L530.713 992.935C485.964 1018.76 430.844 1018.76 386.088 992.935L386.087 992.934L73.3789 812.416C28.6026 786.575 1.00338 738.801 1 687.099V326.199L1.00488 324.988C1.43219 273.752 28.9518 226.528 73.3789 200.882L386.087 20.3643H386.088ZM767.684 266.919C767.683 238.635 737.065 220.958 712.57 235.1L536.074 336.995C523.038 344.522 515.007 358.431 515.007 373.484L515.006 517.73C515.006 537.351 504.538 555.481 487.547 565.291L376.721 629.277C360.348 638.73 350.262 656.2 350.262 675.105L350.264 862.623C350.264 890.907 380.883 908.584 405.378 894.442L735.832 703.654C755.541 692.275 767.683 671.246 767.684 648.487V266.919ZM566.537 150.677C566.536 122.393 535.918 104.717 511.424 118.857L180.967 309.646C161.257 321.026 149.115 342.056 149.115 364.814V746.384C149.115 774.668 179.733 792.346 204.229 778.205L248.34 752.738C264.589 743.357 274.6 726.018 274.6 707.255V634.712C274.6 616.904 279.485 599.437 288.724 584.213L461.579 299.385C466.801 290.78 474.11 283.63 482.827 278.597L542.953 243.882C557.547 235.456 566.537 219.885 566.537 203.033V150.677Z" stroke="#6A7282" stroke-width="2"/>
</svg>
