<svg width="5817" height="1104" viewBox="0 0 5817 1104" fill="none" xmlns="http://www.w3.org/2000/svg">
<path d="M859.432 0C933.549 4.17619e-05 993.634 60.0845 993.634 134.202V428.424C993.633 502.54 933.55 562.623 859.434 562.624L810.796 562.625C791.769 601.405 751.896 628.103 705.785 628.104C641.221 628.104 588.881 575.764 588.881 511.2C588.881 446.636 641.221 394.297 705.785 394.297C752.019 394.297 791.982 421.137 810.948 460.085L859.432 460.084C876.918 460.083 891.093 445.909 891.094 428.424V134.202C891.093 116.716 876.918 102.54 859.432 102.54H575.8C558.314 102.54 544.138 116.716 544.138 134.202V969.525C544.138 1043.64 484.052 1103.73 409.935 1103.73H134.202C60.0846 1103.73 3.75795e-05 1043.64 0 969.525V675.285C0.000391539 601.208 59.9961 541.082 134.153 541.082H175.019C194.721 504.328 233.5 479.329 278.119 479.329C342.683 479.329 395.022 531.669 395.022 596.233C395.022 660.797 342.683 713.137 278.119 713.137C230.425 713.137 189.403 684.574 171.222 643.622H134.153C116.707 643.622 102.54 657.759 102.54 675.285V969.525C102.54 987.012 116.716 1001.19 134.202 1001.19H409.935C427.421 1001.19 441.598 987.012 441.598 969.525V134.202C441.598 60.0852 501.683 0.000460617 575.8 0H859.432ZM278.119 556.859C256.374 556.859 238.746 574.488 238.746 596.233C238.746 617.978 256.374 635.606 278.119 635.606C299.864 635.606 317.492 617.978 317.492 596.233C317.492 574.488 299.864 556.859 278.119 556.859ZM705.785 471.826C684.04 471.826 666.411 489.455 666.411 511.2C666.411 532.945 684.04 550.573 705.785 550.573C727.53 550.573 745.158 532.945 745.158 511.2C745.158 489.455 727.53 471.826 705.785 471.826Z" fill="#5368BD"/>
<path d="M5604.65 900.527C5554.78 900.527 5510.44 890.06 5471.65 869.124C5433.47 847.572 5403.3 818.324 5381.13 781.378C5359.58 744.433 5348.8 701.945 5348.8 653.916C5348.8 615.739 5354.96 580.949 5367.28 549.545C5379.59 518.142 5396.53 491.048 5418.08 468.265C5440.25 444.866 5466.41 427.009 5496.59 414.694C5527.37 401.763 5560.63 395.298 5596.34 395.298C5627.74 395.298 5656.99 401.455 5684.09 413.771C5711.18 425.47 5734.58 441.788 5754.28 462.723C5774.6 483.659 5790 508.597 5800.46 537.538C5811.55 565.863 5816.78 596.959 5816.17 630.825L5815.24 671.465H5419L5397.76 595.727H5733.04L5719.18 611.429V589.262C5717.34 568.942 5710.56 550.777 5698.86 534.767C5687.16 518.757 5672.39 506.134 5654.53 496.898C5636.67 487.662 5617.28 483.043 5596.34 483.043C5563.09 483.043 5535.07 489.509 5512.29 502.44C5489.51 514.755 5472.26 533.228 5460.57 557.858C5448.87 581.873 5443.02 611.737 5443.02 647.451C5443.02 681.318 5450.1 710.874 5464.26 736.12C5478.42 760.75 5498.43 779.839 5524.3 793.386C5550.16 806.932 5580.02 813.706 5613.89 813.706C5637.9 813.706 5660.07 809.703 5680.39 801.698C5701.33 793.693 5723.8 779.223 5747.82 758.287L5795.85 825.713C5781.07 840.491 5762.9 853.422 5741.35 864.506C5720.42 875.589 5697.94 884.518 5673.93 891.291C5650.53 897.449 5627.44 900.527 5604.65 900.527Z" fill="white"/>
<path d="M4995.59 1103.73C4961.11 1103.73 4926.63 1098.19 4892.15 1087.1C4858.28 1076.63 4830.88 1062.78 4809.94 1045.54L4845.04 971.648C4857.35 980.884 4871.83 988.889 4888.45 995.662C4905.08 1003.05 4922.63 1008.59 4941.1 1012.29C4959.57 1016.6 4977.74 1018.75 4995.59 1018.75C5029.46 1018.75 5057.78 1013.21 5080.57 1002.13C5103.35 991.044 5120.59 974.727 5132.29 953.175C5143.99 931.624 5149.84 904.838 5149.84 872.819V779.531L5160 785.997C5156.92 805.085 5146.76 823.558 5129.52 841.415C5112.89 858.656 5091.96 872.819 5066.71 883.902C5041.47 894.986 5015.6 900.528 4989.13 900.528C4942.95 900.528 4901.69 889.752 4865.36 868.2C4829.65 846.033 4801.32 816.169 4780.39 778.608C4759.45 740.431 4748.98 697.02 4748.98 648.375C4748.98 599.73 4759.14 556.627 4779.46 519.065C4800.4 480.888 4828.72 451.024 4864.44 429.473C4900.77 407.305 4941.41 396.222 4986.36 396.222C5004.83 396.222 5022.69 398.685 5039.93 403.611C5057.17 407.921 5073.18 414.387 5087.96 423.007C5102.73 431.012 5115.97 439.941 5127.67 449.793C5139.37 459.645 5148.92 470.113 5156.31 481.196C5163.69 492.28 5168.31 502.748 5170.16 512.6L5149.84 519.989V406.382H5244.97V861.735C5244.97 900.528 5239.13 934.702 5227.43 964.259C5216.34 994.431 5200.02 1019.68 5178.47 1040C5156.92 1060.93 5130.75 1076.63 5099.96 1087.1C5069.18 1098.19 5034.39 1103.73 4995.59 1103.73ZM4999.29 812.782C5029.46 812.782 5056.24 805.701 5079.64 791.538C5103.04 777.376 5121.21 757.98 5134.14 733.349C5147.07 708.719 5153.53 680.394 5153.53 648.375C5153.53 616.355 5146.76 588.03 5133.21 563.4C5120.28 538.154 5102.12 518.45 5078.72 504.287C5055.94 490.125 5029.46 483.044 4999.29 483.044C4969.73 483.044 4943.25 490.433 4919.85 505.211C4897.07 519.373 4878.91 539.078 4865.36 564.324C4852.43 588.954 4845.96 616.971 4845.96 648.375C4845.96 679.778 4852.43 708.103 4865.36 733.349C4878.91 757.98 4897.07 777.376 4919.85 791.538C4943.25 805.701 4969.73 812.782 4999.29 812.782Z" fill="white"/>
<path d="M4380.62 900.528C4340.6 900.528 4303.96 889.444 4270.71 867.277C4238.08 845.109 4211.91 814.937 4192.2 776.76C4172.5 738.583 4162.65 695.48 4162.65 647.451C4162.65 598.806 4172.5 555.703 4192.2 518.142C4212.52 479.965 4239.61 450.1 4273.48 428.549C4307.96 406.997 4346.45 396.222 4388.94 396.222C4414.18 396.222 4437.27 399.916 4458.21 407.305C4479.14 414.694 4497.31 425.162 4512.7 438.709C4528.71 451.64 4541.64 466.726 4551.5 483.967C4561.96 501.208 4568.43 519.681 4570.89 539.385L4549.65 531.996V406.382H4645.71V891.291H4549.65V775.837L4571.82 769.371C4568.12 785.997 4560.42 802.314 4548.73 818.324C4537.64 833.718 4523.17 847.572 4505.31 859.888C4488.07 872.203 4468.68 882.055 4447.13 889.444C4426.19 896.833 4404.02 900.528 4380.62 900.528ZM4405.56 812.782C4434.5 812.782 4460.06 805.701 4482.22 791.538C4504.39 777.376 4521.63 757.98 4533.95 733.349C4546.88 708.103 4553.34 679.47 4553.34 647.451C4553.34 616.047 4546.88 588.03 4533.95 563.4C4521.63 538.77 4504.39 519.373 4482.22 505.211C4460.06 491.048 4434.5 483.967 4405.56 483.967C4377.24 483.967 4351.99 491.048 4329.82 505.211C4308.27 519.373 4291.03 538.77 4278.1 563.4C4265.78 588.03 4259.63 616.047 4259.63 647.451C4259.63 679.47 4265.78 708.103 4278.1 733.349C4291.03 757.98 4308.27 777.376 4329.82 791.538C4351.99 805.701 4377.24 812.782 4405.56 812.782Z" fill="white"/>
<path d="M3611.36 1094.49V406.382H3707.42V517.219L3692.64 508.906C3696.34 490.433 3706.81 472.884 3724.05 456.259C3741.29 439.017 3762.22 425.163 3786.85 414.695C3812.1 403.611 3837.96 398.069 3864.44 398.069C3908.16 398.069 3946.95 408.845 3980.82 430.397C4014.68 451.948 4041.47 481.505 4061.17 519.066C4080.88 556.627 4090.73 599.73 4090.73 648.375C4090.73 696.404 4080.88 739.507 4061.17 777.684C4042.09 815.246 4015.61 845.11 3981.74 867.277C3947.88 888.829 3909.7 899.604 3867.21 899.604C3838.89 899.604 3811.48 894.063 3785.01 882.979C3758.53 871.28 3736.05 856.501 3717.58 838.644C3699.11 820.787 3687.72 802.315 3683.41 783.226L3707.42 770.295V1094.49H3611.36ZM3851.51 811.859C3879.83 811.859 3905.08 804.778 3927.25 790.615C3949.41 776.453 3966.96 757.056 3979.89 732.426C3992.83 707.796 3999.29 679.779 3999.29 648.375C3999.29 616.971 3992.83 589.262 3979.89 565.248C3967.58 540.617 3950.34 521.221 3928.17 507.059C3906 492.896 3880.45 485.815 3851.51 485.815C3822.57 485.815 3797.01 492.896 3774.85 507.059C3752.68 520.605 3735.13 539.694 3722.2 564.324C3709.27 588.954 3702.8 616.971 3702.8 648.375C3702.8 679.779 3709.27 707.796 3722.2 732.426C3735.13 757.056 3752.68 776.453 3774.85 790.615C3797.01 804.778 3822.57 811.859 3851.51 811.859Z" fill="white"/>
<path d="M3439.99 901.452C3419.67 901.452 3403.97 895.602 3392.89 883.903C3381.8 871.588 3376.26 854.346 3376.26 832.179C3376.26 811.859 3382.11 795.234 3393.81 782.303C3405.51 769.372 3420.9 762.906 3439.99 762.906C3460.31 762.906 3476.01 769.064 3487.1 781.379C3498.18 793.078 3503.72 810.012 3503.72 832.179C3503.72 852.499 3497.87 869.125 3486.17 882.055C3474.47 894.986 3459.08 901.452 3439.99 901.452Z" fill="white"/>
<path d="M3120.86 900.528C3080.22 900.528 3043.58 893.446 3010.95 879.284C2978.31 865.122 2951.22 844.186 2929.67 816.477L2994.32 761.058C3012.8 782.61 3032.81 798.312 3054.36 808.164C3076.53 817.4 3101.46 822.019 3129.17 822.019C3140.26 822.019 3150.42 820.787 3159.65 818.324C3169.51 815.245 3177.82 810.935 3184.59 805.393C3191.98 799.851 3197.52 793.386 3201.22 785.997C3204.91 777.992 3206.76 769.371 3206.76 760.135C3206.76 744.125 3200.91 731.194 3189.21 721.342C3183.05 717.032 3173.2 712.414 3159.65 707.487C3146.72 701.946 3129.79 696.404 3108.85 690.862C3073.14 681.626 3043.89 671.158 3021.11 659.458C2998.33 647.759 2980.78 634.52 2968.46 619.742C2959.22 608.043 2952.45 595.419 2948.14 581.873C2943.83 567.71 2941.68 552.316 2941.68 535.691C2941.68 515.371 2945.99 496.898 2954.61 480.273C2963.84 463.031 2976.16 448.253 2991.55 435.938C3007.56 423.007 3026.03 413.155 3046.97 406.382C3068.52 399.608 3091.31 396.222 3115.32 396.222C3138.1 396.222 3160.58 399.3 3182.75 405.458C3205.53 411.616 3226.46 420.544 3245.55 432.244C3264.64 443.943 3280.65 457.798 3293.58 473.807L3239.09 533.844C3227.39 522.144 3214.46 511.984 3200.29 503.364C3186.75 494.127 3172.89 487.046 3158.73 482.12C3144.57 477.194 3131.64 474.731 3119.94 474.731C3107.01 474.731 3095.31 475.962 3084.84 478.425C3074.37 480.888 3065.44 484.583 3058.05 489.509C3051.28 494.435 3046.05 500.593 3042.35 507.982C3038.66 515.371 3036.81 523.684 3036.81 532.92C3037.43 540.925 3039.27 548.622 3042.35 556.011C3046.05 562.784 3050.97 568.634 3057.13 573.56C3063.9 578.486 3074.06 583.72 3087.61 589.262C3101.16 594.804 3118.4 600.038 3139.33 604.964C3170.12 612.969 3195.37 621.897 3215.07 631.749C3235.39 640.986 3251.4 651.761 3263.1 664.077C3275.42 675.776 3284.04 689.323 3288.96 704.717C3293.89 720.111 3296.35 737.352 3296.35 756.44C3296.35 784.149 3288.35 809.088 3272.34 831.255C3256.94 852.806 3236.01 869.74 3209.53 882.055C3183.05 894.37 3153.5 900.528 3120.86 900.528Z" fill="white"/>
<path d="M2670.9 900.528C2625.95 900.528 2585.62 889.444 2549.91 867.277C2514.81 845.109 2486.79 814.937 2465.86 776.76C2445.54 738.583 2435.38 695.788 2435.38 648.375C2435.38 600.961 2445.54 558.166 2465.86 519.989C2486.79 481.812 2514.81 451.64 2549.91 429.473C2585.62 407.305 2625.95 396.222 2670.9 396.222C2714.01 396.222 2753.11 405.15 2788.21 423.007C2823.92 440.248 2851.01 463.955 2869.49 494.127L2816.84 558.782C2806.99 544.619 2794.36 531.689 2778.97 519.989C2763.58 508.29 2747.26 499.053 2730.02 492.28C2712.78 485.507 2696.15 482.12 2680.14 482.12C2650.59 482.12 2624.11 489.509 2600.71 504.287C2577.93 518.45 2559.76 538.154 2546.21 563.4C2532.67 588.646 2525.89 616.971 2525.89 648.375C2525.89 679.778 2532.98 708.103 2547.14 733.349C2561.3 757.98 2580.08 777.684 2603.48 792.462C2626.88 807.24 2652.74 814.629 2681.07 814.629C2697.69 814.629 2713.7 811.858 2729.09 806.317C2745.1 800.775 2760.5 792.462 2775.28 781.378C2790.05 770.295 2803.91 756.748 2816.84 740.738L2869.49 805.393C2849.78 833.102 2821.46 855.885 2784.51 873.742C2748.18 891.599 2710.31 900.528 2670.9 900.528Z" fill="white"/>
<path d="M2114.66 900.528C2067.25 900.528 2024.76 889.752 1987.2 868.2C1950.25 846.033 1921 816.169 1899.45 778.608C1877.9 740.431 1867.12 697.02 1867.12 648.375C1867.12 599.73 1877.9 556.627 1899.45 519.065C1921 480.888 1950.25 451.024 1987.2 429.473C2024.76 407.305 2067.25 396.222 2114.66 396.222C2161.46 396.222 2203.33 407.305 2240.27 429.473C2277.83 451.024 2307.39 480.888 2328.94 519.065C2350.49 556.627 2361.27 599.73 2361.27 648.375C2361.27 697.02 2350.49 740.431 2328.94 778.608C2307.39 816.169 2277.83 846.033 2240.27 868.2C2203.33 889.752 2161.46 900.528 2114.66 900.528ZM2114.66 813.706C2143.6 813.706 2169.46 806.625 2192.24 792.462C2215.03 777.684 2232.88 757.98 2245.82 733.349C2258.75 708.103 2264.9 679.778 2264.29 648.375C2264.9 616.355 2258.75 588.03 2245.82 563.4C2232.88 538.154 2215.03 518.45 2192.24 504.287C2169.46 490.125 2143.6 483.044 2114.66 483.044C2085.72 483.044 2059.55 490.433 2036.15 505.211C2013.37 519.373 1995.51 539.078 1982.58 564.324C1969.65 588.954 1963.49 616.971 1964.11 648.375C1963.49 679.778 1969.65 708.103 1982.58 733.349C1995.51 757.98 2013.37 777.684 2036.15 792.462C2059.55 806.625 2085.72 813.706 2114.66 813.706Z" fill="white"/>
<path d="M1513.57 900.528C1469.23 900.528 1429.52 889.752 1394.42 868.201C1359.93 846.033 1332.53 816.169 1312.21 778.608C1291.89 740.431 1281.73 697.02 1281.73 648.375C1281.73 599.73 1291.59 556.627 1311.29 519.066C1331.61 480.889 1359.01 451.024 1393.49 429.473C1427.98 407.305 1467.08 396.222 1510.8 396.222C1534.81 396.222 1557.9 400.224 1580.07 408.229C1602.85 415.618 1623.17 426.086 1641.03 439.633C1658.89 452.564 1672.74 467.034 1682.59 483.044C1693.06 498.438 1698.29 514.139 1698.29 530.149L1670.58 531.996V207.8H1765.72V891.291H1670.58V775.837H1689.06C1689.06 790.615 1684.13 805.393 1674.28 820.171C1664.43 834.334 1651.19 847.573 1634.56 859.888C1618.55 872.203 1599.77 882.055 1578.22 889.444C1557.29 896.833 1535.73 900.528 1513.57 900.528ZM1526.5 818.324C1555.44 818.324 1580.99 810.935 1603.16 796.157C1625.33 781.379 1642.57 761.367 1654.88 736.12C1667.81 710.259 1674.28 681.01 1674.28 648.375C1674.28 615.74 1667.81 586.799 1654.88 561.553C1642.57 535.691 1625.33 515.371 1603.16 500.593C1580.99 485.815 1555.44 478.426 1526.5 478.426C1497.56 478.426 1472 485.815 1449.84 500.593C1427.67 515.371 1410.12 535.691 1397.19 561.553C1384.87 586.799 1378.72 615.74 1378.72 648.375C1378.72 681.01 1384.87 710.259 1397.19 736.12C1410.12 761.367 1427.67 781.379 1449.84 796.157C1472 810.935 1497.56 818.324 1526.5 818.324Z" fill="white"/>
</svg>
