<svg width="6703" height="1213" viewBox="0 0 6703 1213" fill="none" xmlns="http://www.w3.org/2000/svg">
<path fill-rule="evenodd" clip-rule="evenodd" d="M902.64 6.45286e-10C998.542 -0.000258605 1076.29 77.7445 1076.29 173.647V415.652C1076.29 511.554 998.544 589.299 902.642 589.3H817.711C803.376 629.456 765.008 658.195 719.927 658.195L719.256 658.193C662.239 657.832 616.129 611.499 616.129 554.396C616.129 497.071 662.601 450.599 719.927 450.599C765.137 450.599 803.597 479.503 817.834 519.841H902.642C960.183 519.84 1006.83 473.193 1006.83 415.652V173.647C1006.83 116.106 960.181 69.4589 902.64 69.459L672.6 69.46C615.058 69.4601 568.411 116.107 568.411 173.648V1027.03C568.411 1122.94 490.666 1200.68 394.764 1200.68H173.647C77.7447 1200.68 0 1122.94 0 1027.03V785.007C0 689.112 77.7136 611.358 173.624 611.358H249.013C263.393 571.289 301.717 542.628 346.735 542.628C404.062 542.628 450.534 589.1 450.534 646.426L450.532 647.098C450.171 704.115 403.838 750.225 346.735 750.225L346.064 750.223C301.083 749.938 262.891 721.041 248.771 680.817H173.624C116.09 680.817 69.459 727.457 69.459 785.007V1027.03C69.459 1084.57 116.106 1131.22 173.647 1131.22H394.764C452.305 1131.22 498.952 1084.57 498.952 1027.03V173.648C498.952 77.746 576.696 0.0014891 672.599 0.000976563L902.64 6.45286e-10ZM346.735 612.087C327.771 612.087 312.397 627.461 312.396 646.426C312.396 665.391 327.77 680.765 346.735 680.766C365.701 680.766 381.075 665.391 381.075 646.426C381.075 627.461 365.7 612.087 346.735 612.087ZM719.927 520.058C700.962 520.058 685.588 535.432 685.588 554.396C685.588 573.361 700.962 588.736 719.927 588.736C738.892 588.736 754.267 573.362 754.267 554.396C754.266 535.432 738.892 520.058 719.927 520.058Z" fill="#E69135"/>
<path d="M6467.37 985.912C6411.85 985.912 6362.5 974.259 6319.31 950.954C6276.81 926.963 6243.23 894.403 6218.55 853.275C6194.56 812.148 6182.56 764.851 6182.56 711.385C6182.56 668.886 6189.42 630.158 6203.13 595.199C6216.84 560.241 6235.69 530.08 6259.68 504.718C6284.35 478.671 6313.49 458.792 6347.07 445.083C6381.35 430.689 6418.36 423.491 6458.12 423.491C6493.08 423.491 6525.64 430.346 6555.8 444.055C6585.96 457.079 6612.01 475.244 6633.94 498.549C6656.56 521.855 6673.7 549.616 6685.35 581.833C6697.69 613.364 6703.51 647.98 6702.83 685.68L6701.8 730.921H6260.71L6237.06 646.609H6610.29L6594.87 664.088V639.411C6592.81 616.791 6585.27 596.57 6572.25 578.748C6559.22 560.926 6542.77 546.874 6522.9 536.592C6503.02 526.31 6481.42 521.169 6458.12 521.169C6421.1 521.169 6389.92 528.367 6364.55 542.761C6339.19 556.471 6320 577.034 6306.98 604.453C6293.95 631.186 6287.44 664.431 6287.44 704.188C6287.44 741.888 6295.32 774.79 6311.09 802.894C6326.85 830.313 6349.13 851.562 6377.92 866.642C6406.71 881.722 6439.95 889.262 6477.65 889.262C6504.39 889.262 6529.06 884.807 6551.68 875.896C6574.99 866.985 6600.01 850.876 6626.74 827.571L6680.21 902.629C6663.76 919.08 6643.54 933.474 6619.55 945.813C6596.24 958.151 6571.22 968.09 6544.49 975.63C6518.44 982.485 6492.74 985.912 6467.37 985.912Z" fill="white"/>
<path d="M5789.37 1212.11C5750.98 1212.11 5712.6 1205.95 5674.21 1193.61C5636.51 1181.95 5606.01 1166.53 5582.7 1147.34L5621.77 1065.08C5635.48 1075.37 5651.59 1084.28 5670.1 1091.82C5688.61 1100.04 5708.14 1106.21 5728.71 1110.32C5749.27 1115.12 5769.49 1117.52 5789.37 1117.52C5827.07 1117.52 5858.6 1111.35 5883.96 1099.01C5909.33 1086.68 5928.52 1068.51 5941.54 1044.52C5954.57 1020.53 5961.08 990.711 5961.08 955.067V851.219L5972.39 858.417C5968.96 879.666 5957.65 900.23 5938.46 920.108C5919.95 939.301 5896.64 955.067 5868.54 967.405C5840.44 979.743 5811.65 985.912 5782.17 985.912C5730.76 985.912 5684.84 973.917 5644.4 949.926C5604.64 925.249 5573.11 892.004 5549.8 850.191C5526.5 807.692 5514.84 759.367 5514.84 705.216C5514.84 651.065 5526.15 603.082 5548.77 561.269C5572.08 518.77 5603.61 485.526 5643.37 461.534C5683.81 436.858 5729.05 424.52 5779.09 424.52C5799.65 424.52 5819.53 427.261 5838.72 432.745C5857.92 437.543 5875.74 444.741 5892.19 454.337C5908.64 463.248 5923.38 473.187 5936.4 484.155C5949.43 495.122 5960.05 506.775 5968.28 519.113C5976.5 531.451 5981.64 543.104 5983.7 554.072L5961.08 562.297V435.83H6066.98V942.728C6066.98 985.912 6060.47 1023.96 6047.45 1056.86C6035.11 1090.45 6016.94 1118.55 5992.95 1141.17C5968.96 1164.48 5939.83 1181.95 5905.56 1193.61C5871.28 1205.95 5832.55 1212.11 5789.37 1212.11ZM5793.48 888.234C5827.07 888.234 5856.89 880.351 5882.94 864.586C5908.98 848.82 5929.2 827.228 5943.6 799.81C5957.99 772.391 5965.19 740.86 5965.19 705.216C5965.19 669.572 5957.65 638.041 5942.57 610.622C5928.18 582.518 5907.95 560.584 5881.91 544.818C5856.55 529.052 5827.07 521.17 5793.48 521.17C5760.58 521.17 5731.11 529.395 5705.06 545.846C5679.7 561.612 5659.48 583.547 5644.4 611.65C5630 639.069 5622.8 670.257 5622.8 705.216C5622.8 740.174 5630 771.706 5644.4 799.81C5659.48 827.228 5679.7 848.82 5705.06 864.586C5731.11 880.351 5760.58 888.234 5793.48 888.234Z" fill="white"/>
<path d="M5104.79 985.912C5060.23 985.912 5019.45 973.574 4982.43 948.897C4946.1 924.221 4916.97 890.633 4895.04 848.135C4873.1 805.636 4862.13 757.654 4862.13 704.188C4862.13 650.036 4873.1 602.054 4895.04 560.241C4917.66 517.742 4947.82 484.497 4985.52 460.506C5023.9 436.515 5066.74 424.52 5114.04 424.52C5142.14 424.52 5167.85 428.632 5191.16 436.858C5214.46 445.083 5234.68 456.736 5251.82 471.816C5269.64 486.211 5284.04 503.005 5295 522.198C5306.66 541.391 5313.85 561.955 5316.59 583.889L5292.95 575.664V435.83H5399.88V975.63H5292.95V847.106L5317.62 839.909C5313.51 858.417 5304.94 876.581 5291.92 894.403C5279.58 911.54 5263.47 926.963 5243.59 940.672C5224.4 954.381 5202.81 965.349 5178.82 973.574C5155.51 981.8 5130.83 985.912 5104.79 985.912ZM5132.55 888.234C5164.77 888.234 5193.21 880.351 5217.89 864.586C5242.56 848.82 5261.76 827.228 5275.47 799.81C5289.86 771.706 5297.06 739.832 5297.06 704.188C5297.06 669.229 5289.86 638.041 5275.47 610.622C5261.76 583.204 5242.56 561.612 5217.89 545.846C5193.21 530.081 5164.77 522.198 5132.55 522.198C5101.02 522.198 5072.91 530.081 5048.24 545.846C5024.25 561.612 5005.05 583.204 4990.66 610.622C4976.95 638.041 4970.09 669.229 4970.09 704.188C4970.09 739.832 4976.95 771.706 4990.66 799.81C5005.05 827.228 5024.25 848.82 5048.24 864.586C5072.91 880.351 5101.02 888.234 5132.55 888.234Z" fill="white"/>
<path d="M4248.45 1201.83V435.83H4355.38V559.213L4338.93 549.959C4343.04 529.395 4354.69 509.86 4373.89 491.352C4393.08 472.159 4416.39 456.736 4443.8 445.084C4471.91 432.745 4500.7 426.576 4530.17 426.576C4578.84 426.576 4622.02 438.572 4659.72 462.563C4697.42 486.554 4727.24 519.456 4749.18 561.269C4771.11 603.083 4782.08 651.065 4782.08 705.216C4782.08 758.682 4771.11 806.664 4749.18 849.163C4727.93 890.976 4698.45 924.221 4660.75 948.898C4623.05 972.889 4580.55 984.885 4533.26 984.885C4501.73 984.885 4471.22 978.715 4441.75 966.377C4412.27 953.353 4387.25 936.902 4366.69 917.024C4346.13 897.145 4333.44 876.582 4328.65 855.332L4355.38 840.938V1201.83H4248.45ZM4515.78 887.206C4547.31 887.206 4575.41 879.323 4600.09 863.558C4624.77 847.792 4644.3 826.2 4658.7 798.782C4673.09 771.363 4680.29 740.175 4680.29 705.216C4680.29 670.258 4673.09 639.412 4658.7 612.679C4644.99 585.261 4625.79 563.668 4601.12 547.903C4576.44 532.137 4547.99 524.254 4515.78 524.254C4483.56 524.254 4455.11 532.137 4430.44 547.903C4405.76 562.983 4386.23 584.232 4371.83 611.651C4357.44 639.069 4350.24 670.258 4350.24 705.216C4350.24 740.175 4357.44 771.363 4371.83 798.782C4386.23 826.2 4405.76 847.792 4430.44 863.558C4455.11 879.323 4483.56 887.206 4515.78 887.206Z" fill="white"/>
<path d="M4057.68 986.941C4035.06 986.941 4017.58 980.429 4005.24 967.405C3992.9 953.696 3986.73 934.503 3986.73 909.826C3986.73 887.206 3993.24 868.699 4006.27 854.304C4019.29 839.909 4036.43 832.712 4057.68 832.712C4080.3 832.712 4097.78 839.567 4110.12 853.276C4122.45 866.3 4128.62 885.15 4128.62 909.826C4128.62 932.447 4122.11 950.954 4109.09 965.349C4096.06 979.743 4078.93 986.941 4057.68 986.941Z" fill="#E69135"/>
<path d="M3702.42 985.912C3657.18 985.912 3616.4 978.03 3580.07 962.264C3543.74 946.498 3513.58 923.193 3489.59 892.347L3561.56 830.655C3582.12 854.647 3604.4 872.126 3628.39 883.093C3653.07 893.375 3680.83 898.516 3711.68 898.516C3724.01 898.516 3735.32 897.145 3745.61 894.403C3756.57 890.976 3765.83 886.178 3773.37 880.009C3781.59 873.839 3787.76 866.642 3791.87 858.417C3795.99 849.506 3798.04 839.909 3798.04 829.627C3798.04 811.805 3791.53 797.411 3778.51 786.443C3771.65 781.645 3760.69 776.504 3745.61 771.02C3731.21 764.851 3712.36 758.682 3689.06 752.513C3649.3 742.231 3616.74 730.578 3591.38 717.554C3566.01 704.53 3546.48 689.793 3532.77 673.342C3522.49 660.318 3514.95 646.266 3510.15 631.186C3505.35 615.421 3502.95 598.284 3502.95 579.777C3502.95 557.156 3507.75 536.592 3517.35 518.085C3527.63 498.892 3541.34 482.441 3558.47 468.732C3576.3 454.337 3596.86 443.37 3620.17 435.83C3644.16 428.29 3669.52 424.52 3696.25 424.52C3721.61 424.52 3746.63 427.947 3771.31 434.801C3796.67 441.656 3819.98 451.595 3841.23 464.619C3862.48 477.643 3880.3 493.066 3894.69 510.888L3834.03 577.72C3821.01 564.696 3806.61 553.386 3790.85 543.79C3775.77 533.508 3760.34 525.625 3744.58 520.141C3728.81 514.658 3714.42 511.916 3701.39 511.916C3687 511.916 3673.97 513.287 3662.32 516.029C3650.67 518.77 3640.73 522.883 3632.5 528.367C3624.96 533.851 3619.14 540.705 3615.03 548.931C3610.91 557.156 3608.86 566.41 3608.86 576.692C3609.54 585.603 3611.6 594.171 3615.03 602.397C3619.14 609.937 3624.62 616.449 3631.48 621.932C3639.02 627.416 3650.33 633.242 3665.41 639.412C3680.49 645.581 3699.68 651.407 3722.99 656.891C3757.26 665.802 3785.36 675.741 3807.3 686.708C3829.92 696.99 3847.74 708.986 3860.76 722.695C3874.47 735.719 3884.07 750.799 3889.55 767.936C3895.04 785.072 3897.78 804.265 3897.78 825.514C3897.78 856.36 3888.87 884.121 3871.05 908.798C3853.91 932.789 3830.6 951.639 3801.13 965.349C3771.65 979.058 3738.75 985.912 3702.42 985.912Z" fill="white"/>
<path d="M3201.53 985.912C3151.49 985.912 3106.59 973.574 3066.84 948.897C3027.77 924.221 2996.58 890.633 2973.27 848.135C2950.65 805.636 2939.34 757.997 2939.34 705.216C2939.34 652.435 2950.65 604.796 2973.27 562.297C2996.58 519.799 3027.77 486.211 3066.84 461.534C3106.59 436.858 3151.49 424.52 3201.53 424.52C3249.51 424.52 3293.04 434.459 3332.11 454.337C3371.87 473.53 3402.03 499.92 3422.59 533.508L3363.99 605.481C3353.02 589.716 3338.97 575.321 3321.83 562.297C3304.69 549.273 3286.53 538.992 3267.34 531.452C3248.14 523.911 3229.63 520.141 3211.81 520.141C3178.91 520.141 3149.44 528.367 3123.39 544.818C3098.03 560.584 3077.81 582.518 3062.72 610.622C3047.64 638.726 3040.1 670.257 3040.1 705.216C3040.1 740.174 3047.99 771.706 3063.75 799.81C3079.52 827.228 3100.43 849.163 3126.47 865.614C3152.52 882.065 3181.31 890.29 3212.84 890.29C3231.35 890.29 3249.17 887.206 3266.31 881.037C3284.13 874.868 3301.27 865.614 3317.72 853.276C3334.17 840.937 3349.59 825.857 3363.99 808.035L3422.59 880.009C3400.66 910.854 3369.13 936.216 3328 956.095C3287.56 975.973 3245.4 985.912 3201.53 985.912Z" fill="white"/>
<path d="M2582.32 985.912C2529.54 985.912 2482.24 973.917 2440.43 949.926C2399.3 925.249 2366.74 892.004 2342.75 850.191C2318.76 807.692 2306.76 759.367 2306.76 705.216C2306.76 651.065 2318.76 603.082 2342.75 561.269C2366.74 518.77 2399.3 485.526 2440.43 461.534C2482.24 436.858 2529.54 424.52 2582.32 424.52C2634.41 424.52 2681.02 436.858 2722.15 461.534C2763.97 485.526 2796.87 518.77 2820.86 561.269C2844.85 603.082 2856.85 651.065 2856.85 705.216C2856.85 759.367 2844.85 807.692 2820.86 850.191C2796.87 892.004 2763.97 925.249 2722.15 949.926C2681.02 973.917 2634.41 985.912 2582.32 985.912ZM2582.32 889.262C2614.53 889.262 2643.32 881.38 2668.69 865.614C2694.05 849.163 2713.93 827.228 2728.32 799.81C2742.72 771.706 2749.57 740.174 2748.89 705.216C2749.57 669.572 2742.72 638.041 2728.32 610.622C2713.93 582.518 2694.05 560.584 2668.69 544.818C2643.32 529.052 2614.53 521.17 2582.32 521.17C2550.1 521.17 2520.97 529.395 2494.92 545.846C2469.56 561.612 2449.68 583.547 2435.29 611.65C2420.89 639.069 2414.04 670.257 2414.72 705.216C2414.04 740.174 2420.89 771.706 2435.29 799.81C2449.68 827.228 2469.56 849.163 2494.92 865.614C2520.97 881.38 2550.1 889.262 2582.32 889.262Z" fill="white"/>
<path d="M1913.18 985.912C1863.83 985.912 1819.62 973.917 1780.55 949.926C1742.16 925.249 1711.66 892.004 1689.04 850.191C1666.42 807.693 1655.11 759.368 1655.11 705.216C1655.11 651.065 1666.07 603.082 1688.01 561.269C1710.63 518.771 1741.13 485.526 1779.52 461.535C1817.9 436.858 1861.43 424.52 1910.1 424.52C1936.83 424.52 1962.54 428.975 1987.21 437.886C2012.57 446.112 2035.19 457.765 2055.07 472.845C2074.95 487.239 2090.37 503.348 2101.34 521.17C2112.99 538.306 2118.82 555.786 2118.82 573.608L2087.98 575.664V214.769H2193.88V975.631H2087.98V847.107H2108.54C2108.54 863.558 2103.06 880.009 2092.09 896.46C2081.12 912.225 2066.38 926.963 2047.88 940.672C2030.05 954.381 2009.15 965.349 1985.16 973.574C1961.85 981.8 1937.86 985.912 1913.18 985.912ZM1927.58 894.403C1959.79 894.403 1988.24 886.178 2012.92 869.727C2037.59 853.276 2056.79 830.998 2070.5 802.894C2084.89 774.105 2092.09 741.546 2092.09 705.216C2092.09 668.887 2084.89 636.67 2070.5 608.566C2056.79 579.777 2037.59 557.156 2012.92 540.705C1988.24 524.254 1959.79 516.029 1927.58 516.029C1895.36 516.029 1866.91 524.254 1842.24 540.705C1817.56 557.156 1798.03 579.777 1783.63 608.566C1769.92 636.67 1763.07 668.887 1763.07 705.216C1763.07 741.546 1769.92 774.105 1783.63 802.894C1798.03 830.998 1817.56 853.276 1842.24 869.727C1866.91 886.178 1895.36 894.403 1927.58 894.403Z" fill="white"/>
</svg>
