<svg width="6253" height="1565" viewBox="0 0 6253 1565" fill="none" xmlns="http://www.w3.org/2000/svg">
<path d="M6040.82 1027.26C5990.94 1027.26 5946.61 1016.79 5907.82 995.858C5869.64 974.307 5839.47 945.058 5817.3 908.113C5795.75 871.167 5784.97 828.68 5784.97 780.651C5784.97 742.474 5791.13 707.683 5803.45 676.28C5815.76 644.876 5832.69 617.783 5854.25 595C5876.41 571.601 5902.58 553.744 5932.76 541.429C5963.54 528.498 5996.79 522.032 6032.51 522.032C6063.91 522.032 6093.16 528.19 6120.25 540.505C6147.35 552.204 6170.75 568.522 6190.45 589.458C6210.77 610.394 6226.16 635.332 6236.63 664.272C6247.72 692.597 6252.95 723.693 6252.33 757.56L6251.41 798.2H5855.17L5833.93 722.461H6169.21L6155.35 738.163V715.996C6153.5 695.676 6146.73 677.511 6135.03 661.501C6123.33 645.492 6108.55 632.869 6090.7 623.632C6072.84 614.396 6053.44 609.778 6032.51 609.778C5999.26 609.778 5971.24 616.243 5948.46 629.174C5925.67 641.489 5908.43 659.962 5896.73 684.592C5885.03 708.607 5879.18 738.471 5879.18 774.185C5879.18 808.052 5886.27 837.608 5900.43 862.854C5914.59 887.485 5934.6 906.573 5960.46 920.12C5986.33 933.667 6016.19 940.44 6050.06 940.44C6074.07 940.44 6096.24 936.438 6116.56 928.433C6137.49 920.428 6159.97 905.958 6183.98 885.022L6232.01 952.447C6217.24 967.225 6199.07 980.156 6177.52 991.24C6156.58 1002.32 6134.11 1011.25 6110.09 1018.03C6086.69 1024.18 6063.6 1027.26 6040.82 1027.26Z" fill="#040406"/>
<path d="M5431.76 1230.46C5397.28 1230.46 5362.8 1224.92 5328.31 1213.84C5294.45 1203.37 5267.05 1189.51 5246.11 1172.27L5281.21 1098.38C5293.52 1107.62 5307.99 1115.62 5324.62 1122.4C5341.24 1129.79 5358.79 1135.33 5377.27 1139.02C5395.74 1143.33 5413.9 1145.49 5431.76 1145.49C5465.63 1145.49 5493.95 1139.95 5516.74 1128.86C5539.52 1117.78 5556.76 1101.46 5568.46 1079.91C5580.16 1058.36 5586.01 1031.57 5586.01 999.553V906.266L5596.17 912.731C5593.09 931.82 5582.93 950.292 5565.69 968.149C5549.06 985.39 5528.13 999.553 5502.88 1010.64C5477.64 1021.72 5451.77 1027.26 5425.3 1027.26C5379.11 1027.26 5337.86 1016.49 5301.53 994.935C5265.81 972.767 5237.49 942.903 5216.55 905.342C5195.62 867.165 5185.15 823.754 5185.15 775.109C5185.15 726.464 5195.31 683.361 5215.63 645.8C5236.57 607.623 5264.89 577.759 5300.6 556.207C5336.93 534.04 5377.57 522.956 5422.52 522.956C5441 522.956 5458.85 525.419 5476.1 530.345C5493.34 534.655 5509.35 541.121 5524.13 549.742C5538.9 557.746 5552.14 566.675 5563.84 576.527C5575.54 586.379 5585.08 596.847 5592.47 607.931C5599.86 619.014 5604.48 629.482 5606.33 639.334L5586.01 646.723V533.116H5681.14V988.469C5681.14 1027.26 5675.29 1061.44 5663.59 1090.99C5652.51 1121.17 5636.19 1146.41 5614.64 1166.73C5593.09 1187.67 5566.92 1203.37 5536.13 1213.84C5505.34 1224.92 5470.55 1230.46 5431.76 1230.46ZM5435.46 939.517C5465.63 939.517 5492.41 932.435 5515.81 918.273C5539.21 904.11 5557.38 884.714 5570.31 860.084C5583.24 835.453 5589.7 807.129 5589.7 775.109C5589.7 743.09 5582.93 714.765 5569.38 690.134C5556.45 664.888 5538.29 645.184 5514.89 631.022C5492.11 616.859 5465.63 609.778 5435.46 609.778C5405.9 609.778 5379.42 617.167 5356.02 631.945C5333.24 646.108 5315.07 665.812 5301.53 691.058C5288.6 715.688 5282.13 743.705 5282.13 775.109C5282.13 806.513 5288.6 834.838 5301.53 860.084C5315.07 884.714 5333.24 904.11 5356.02 918.273C5379.42 932.435 5405.9 939.517 5435.46 939.517Z" fill="#040406"/>
<path d="M4816.79 1027.26C4776.77 1027.26 4740.13 1016.18 4706.88 994.011C4674.24 971.844 4648.07 941.672 4628.37 903.495C4608.67 865.318 4598.81 822.215 4598.81 774.185C4598.81 725.541 4608.67 682.437 4628.37 644.876C4648.69 606.699 4675.78 576.835 4709.65 555.283C4744.13 533.732 4782.62 522.956 4825.1 522.956C4850.35 522.956 4873.44 526.651 4894.38 534.04C4915.31 541.429 4933.48 551.897 4948.87 565.443C4964.88 578.374 4977.81 593.46 4987.66 610.702C4998.13 627.943 5004.6 646.416 5007.06 666.12L4985.82 658.731V533.116H5081.88V1018.03H4985.82V902.571L5007.98 896.106C5004.29 912.731 4996.59 929.049 4984.89 945.058C4973.81 960.452 4959.34 974.307 4941.48 986.622C4924.24 998.937 4904.84 1008.79 4883.29 1016.18C4862.36 1023.57 4840.19 1027.26 4816.79 1027.26ZM4841.73 939.517C4870.67 939.517 4896.22 932.435 4918.39 918.273C4940.56 904.11 4957.8 884.714 4970.12 860.084C4983.05 834.838 4989.51 806.205 4989.51 774.185C4989.51 742.782 4983.05 714.765 4970.12 690.134C4957.8 665.504 4940.56 646.108 4918.39 631.945C4896.22 617.783 4870.67 610.702 4841.73 610.702C4813.4 610.702 4788.16 617.783 4765.99 631.945C4744.44 646.108 4727.2 665.504 4714.27 690.134C4701.95 714.765 4695.79 742.782 4695.79 774.185C4695.79 806.205 4701.95 834.838 4714.27 860.084C4727.2 884.714 4744.44 904.11 4765.99 918.273C4788.16 932.435 4813.4 939.517 4841.73 939.517Z" fill="#040406"/>
<path d="M4047.53 1221.23V533.116H4143.59V643.953L4128.81 635.64C4132.51 617.167 4142.97 599.618 4160.22 582.993C4177.46 565.752 4198.39 551.897 4223.02 541.429C4248.27 530.346 4274.13 524.804 4300.61 524.804C4344.33 524.804 4383.12 535.579 4416.99 557.131C4450.85 578.683 4477.64 608.239 4497.34 645.8C4517.05 683.361 4526.9 726.465 4526.9 775.109C4526.9 823.139 4517.05 866.242 4497.34 904.419C4478.25 941.98 4451.78 971.844 4417.91 994.012C4384.04 1015.56 4345.87 1026.34 4303.38 1026.34C4275.05 1026.34 4247.65 1020.8 4221.18 1009.71C4194.7 998.014 4172.22 983.236 4153.75 965.379C4135.28 947.522 4123.89 929.049 4119.57 909.961L4143.59 897.03V1221.23H4047.53ZM4287.68 938.593C4316 938.593 4341.25 931.512 4363.42 917.35C4385.58 903.187 4403.13 883.791 4416.06 859.16C4428.99 834.53 4435.46 806.513 4435.46 775.109C4435.46 743.706 4428.99 715.997 4416.06 691.982C4403.75 667.352 4386.51 647.955 4364.34 633.793C4342.17 619.63 4316.62 612.549 4287.68 612.549C4258.74 612.549 4233.18 619.63 4211.02 633.793C4188.85 647.34 4171.3 666.428 4158.37 691.058C4145.44 715.689 4138.97 743.706 4138.97 775.109C4138.97 806.513 4145.44 834.53 4158.37 859.16C4171.3 883.791 4188.85 903.187 4211.02 917.35C4233.18 931.512 4258.74 938.593 4287.68 938.593Z" fill="#040406"/>
<path d="M3876.16 1028.19C3855.84 1028.19 3840.14 1022.34 3829.06 1010.64C3817.97 998.322 3812.43 981.081 3812.43 958.913C3812.43 938.593 3818.28 921.968 3829.98 909.037C3841.68 896.106 3857.07 889.641 3876.16 889.641C3896.48 889.641 3912.18 895.798 3923.27 908.113C3934.35 919.813 3939.89 936.746 3939.89 958.913C3939.89 979.233 3934.04 995.859 3922.34 1008.79C3910.64 1021.72 3895.25 1028.19 3876.16 1028.19Z" fill="#040406"/>
<path d="M3557.03 1027.26C3516.39 1027.26 3479.75 1020.18 3447.12 1006.02C3414.48 991.856 3387.39 970.92 3365.84 943.211L3430.49 887.793C3448.96 909.344 3468.98 925.046 3490.53 934.898C3512.7 944.135 3537.63 948.753 3565.34 948.753C3576.43 948.753 3586.59 947.521 3595.82 945.058C3605.67 941.98 3613.99 937.669 3620.76 932.127C3628.15 926.586 3633.69 920.12 3637.39 912.731C3641.08 904.726 3642.93 896.106 3642.93 886.869C3642.93 870.859 3637.08 857.929 3625.38 848.076C3619.22 843.766 3609.37 839.148 3595.82 834.222C3582.89 828.68 3565.96 823.138 3545.02 817.596C3509.31 808.36 3480.06 797.892 3457.28 786.193C3434.49 774.493 3416.94 761.255 3404.63 746.476C3395.39 734.777 3388.62 722.154 3384.31 708.607C3380 694.445 3377.84 679.051 3377.84 662.425C3377.84 642.105 3382.15 623.633 3390.78 607.007C3400.01 589.766 3412.33 574.988 3427.72 562.672C3443.73 549.742 3462.2 539.889 3483.14 533.116C3504.69 526.343 3527.47 522.956 3551.49 522.956C3574.27 522.956 3596.75 526.035 3618.91 532.192C3641.7 538.35 3662.63 547.279 3681.72 558.978C3700.81 570.677 3716.82 584.532 3729.75 600.542L3675.26 660.578C3663.56 648.879 3650.63 638.719 3636.46 630.098C3622.92 620.862 3609.06 613.78 3594.9 608.854C3580.74 603.928 3567.81 601.465 3556.11 601.465C3543.18 601.465 3531.48 602.697 3521.01 605.16C3510.54 607.623 3501.61 611.317 3494.22 616.243C3487.45 621.169 3482.22 627.327 3478.52 634.716C3474.83 642.105 3472.98 650.418 3472.98 659.654C3473.59 667.659 3475.44 675.356 3478.52 682.745C3482.22 689.519 3487.14 695.368 3493.3 700.294C3500.07 705.22 3510.23 710.454 3523.78 715.996C3537.33 721.538 3554.57 726.772 3575.5 731.698C3606.29 739.703 3631.54 748.631 3651.24 758.484C3671.56 767.72 3687.57 778.496 3699.27 790.811C3711.59 802.51 3720.21 816.057 3725.13 831.451C3730.06 846.845 3732.52 864.086 3732.52 883.175C3732.52 910.884 3724.52 935.822 3708.51 957.989C3693.11 979.541 3672.18 996.474 3645.7 1008.79C3619.22 1021.1 3589.67 1027.26 3557.03 1027.26Z" fill="#040406"/>
<path d="M3107.07 1027.26C3062.12 1027.26 3021.79 1016.18 2986.08 994.011C2950.98 971.844 2922.96 941.672 2902.03 903.495C2881.71 865.318 2871.55 822.522 2871.55 775.109C2871.55 727.696 2881.71 684.9 2902.03 646.723C2922.96 608.546 2950.98 578.374 2986.08 556.207C3021.79 534.04 3062.12 522.956 3107.07 522.956C3150.18 522.956 3189.28 531.885 3224.38 549.742C3260.09 566.983 3287.18 590.689 3305.66 620.862L3253.01 685.516C3243.16 671.354 3230.53 658.423 3215.14 646.723C3199.75 635.024 3183.43 625.788 3166.19 619.014C3148.95 612.241 3132.32 608.854 3116.31 608.854C3086.75 608.854 3060.28 616.243 3036.88 631.022C3014.09 645.184 2995.93 664.888 2982.38 690.134C2968.84 715.381 2962.06 743.705 2962.06 775.109C2962.06 806.513 2969.14 834.838 2983.31 860.084C2997.47 884.714 3016.25 904.418 3039.65 919.197C3063.05 933.975 3088.91 941.364 3117.23 941.364C3133.86 941.364 3149.87 938.593 3165.26 933.051C3181.27 927.509 3196.67 919.196 3211.44 908.113C3226.22 897.029 3240.08 883.483 3253.01 867.473L3305.66 932.127C3285.95 959.837 3257.63 982.62 3220.68 1000.48C3184.35 1018.33 3146.48 1027.26 3107.07 1027.26Z" fill="#040406"/>
<path d="M2550.83 1027.26C2503.41 1027.26 2460.93 1016.49 2423.37 994.935C2386.42 972.767 2357.17 942.903 2335.62 905.342C2314.07 867.165 2303.29 823.754 2303.29 775.109C2303.29 726.464 2314.07 683.361 2335.62 645.8C2357.17 607.623 2386.42 577.759 2423.37 556.207C2460.93 534.04 2503.41 522.956 2550.83 522.956C2597.62 522.956 2639.5 534.04 2676.44 556.207C2714 577.759 2743.56 607.623 2765.11 645.8C2786.66 683.361 2797.44 726.464 2797.44 775.109C2797.44 823.754 2786.66 867.165 2765.11 905.342C2743.56 942.903 2714 972.767 2676.44 994.935C2639.5 1016.49 2597.62 1027.26 2550.83 1027.26ZM2550.83 940.44C2579.77 940.44 2605.63 933.359 2628.41 919.197C2651.2 904.418 2669.05 884.714 2681.98 860.084C2694.91 834.838 2701.07 806.513 2700.46 775.109C2701.07 743.09 2694.91 714.765 2681.98 690.134C2669.05 664.888 2651.2 645.184 2628.41 631.022C2605.63 616.859 2579.77 609.778 2550.83 609.778C2521.89 609.778 2495.72 617.167 2472.32 631.945C2449.54 646.108 2431.68 665.812 2418.75 691.058C2405.82 715.688 2399.66 743.705 2400.27 775.109C2399.66 806.513 2405.82 834.838 2418.75 860.084C2431.68 884.714 2449.54 904.418 2472.32 919.197C2495.72 933.359 2521.89 940.44 2550.83 940.44Z" fill="#040406"/>
<path d="M1949.73 1027.26C1905.4 1027.26 1865.68 1016.49 1830.59 994.935C1796.1 972.768 1768.7 942.903 1748.38 905.342C1728.06 867.165 1717.9 823.754 1717.9 775.109C1717.9 726.464 1727.75 683.361 1747.46 645.8C1767.78 607.623 1795.18 577.759 1829.66 556.207C1864.14 534.04 1903.24 522.956 1946.96 522.956C1970.98 522.956 1994.07 526.959 2016.24 534.963C2039.02 542.353 2059.34 552.82 2077.2 566.367C2095.05 579.298 2108.91 593.768 2118.76 609.778C2129.23 625.172 2134.46 640.874 2134.46 656.884L2106.75 658.731V334.534H2201.89V1018.03H2106.75V902.571H2125.23C2125.23 917.349 2120.3 932.128 2110.45 946.906C2100.6 961.068 2087.36 974.307 2070.73 986.622C2054.72 998.937 2035.94 1008.79 2014.39 1016.18C1993.45 1023.57 1971.9 1027.26 1949.73 1027.26ZM1962.67 945.058C1991.61 945.058 2017.16 937.669 2039.33 922.891C2061.49 908.113 2078.74 888.101 2091.05 862.855C2103.98 836.993 2110.45 807.744 2110.45 775.109C2110.45 742.474 2103.98 713.533 2091.05 688.287C2078.74 662.425 2061.49 642.105 2039.33 627.327C2017.16 612.549 1991.61 605.16 1962.67 605.16C1933.72 605.16 1908.17 612.549 1886 627.327C1863.84 642.105 1846.29 662.425 1833.36 688.287C1821.04 713.533 1814.88 742.474 1814.88 775.109C1814.88 807.744 1821.04 836.993 1833.36 862.855C1846.29 888.101 1863.84 908.113 1886 922.891C1908.17 937.669 1933.72 945.058 1962.67 945.058Z" fill="#040406"/>
<path d="M1359.73 1050.52C1359.73 1093.75 1336.67 1133.7 1299.23 1155.31L688.621 1507.84C644.621 1533.24 589.622 1501.49 589.622 1450.68V1105.54L635.683 937.684C672.339 804.104 750.442 671.511 849.503 574.69L971.877 455.081L1260.72 288.316C1304.72 262.913 1359.72 294.667 1359.72 345.473L1359.73 1050.52Z" fill="#5368BD"/>
<path fill-rule="evenodd" clip-rule="evenodd" d="M975.37 819.364C975.37 862.594 952.307 902.54 914.869 924.155L304.262 1276.68C260.262 1302.09 205.262 1270.33 205.262 1219.52V514.478C205.262 471.249 228.325 431.303 265.762 409.689L590.313 222.309L876.364 57.1572C920.364 31.7539 975.364 63.5078 975.364 114.314L975.37 819.364ZM543.561 395.317C506.905 528.897 428.802 661.49 329.741 758.311L226.503 859.215C219.699 865.865 225.278 877.349 234.711 876.111L329.741 863.64C428.802 850.64 506.905 896.647 543.561 989.589L578.725 1078.75C582.216 1087.6 594.964 1086.91 597.482 1077.74L635.683 938.525C672.339 804.945 750.442 672.352 849.503 575.531L952.741 474.628C959.545 467.978 953.966 456.494 944.533 457.732L849.503 470.203C750.442 483.202 672.339 437.196 635.683 344.253L600.519 255.092C597.028 246.241 584.28 246.93 581.762 256.105L543.561 395.317Z" fill="#2D3F88"/>
</svg>
