<svg width="44" height="44" viewBox="0 0 44 44" fill="none" xmlns="http://www.w3.org/2000/svg">
<g clip-path="url(#clip0_3283_3077)">
<rect width="44" height="44" rx="22" fill="#040406"/>
<rect width="44" height="44" rx="22" fill="url(#paint0_linear_3283_3077)"/>
<g filter="url(#filter0_d_3283_3077)">
<path d="M19.6704 11.1483C20.1835 11.1376 20.6934 11.2305 21.1704 11.4198C21.6473 11.609 22.0817 11.8914 22.4478 12.2508C22.8139 12.6105 23.1054 13.04 23.3033 13.5135C23.5008 13.9864 23.6013 14.4943 23.6001 15.0067V28.0077C23.5994 28.6706 23.4628 29.3264 23.1988 29.9344C22.9347 30.5424 22.5489 31.0898 22.065 31.5428C21.5811 31.9959 21.0094 32.3447 20.3853 32.5682C19.7612 32.7917 19.0976 32.8856 18.4361 32.8426C17.7746 32.7997 17.1286 32.6214 16.5386 32.3192C15.9487 32.0169 15.4267 31.5966 15.0054 31.0848C14.5843 30.5731 14.2726 29.9804 14.0894 29.3436C13.9571 28.8836 13.8948 28.4071 13.9019 27.9305C13.4144 27.5768 12.9946 27.1354 12.6675 26.6258C12.2408 25.9608 11.983 25.2012 11.9165 24.4139C11.8502 23.6267 11.9775 22.8352 12.2867 22.1082C12.5087 21.5862 12.8207 21.1093 13.2056 20.6971C13.0277 20.2192 12.9247 19.7153 12.9038 19.203C12.874 18.4677 13.0111 17.7345 13.3062 17.0604C13.6013 16.3863 14.0465 15.7882 14.607 15.3114C15.0037 14.9739 15.4518 14.7048 15.9322 14.5106C15.969 14.2219 16.0378 13.9372 16.1392 13.6629C16.3171 13.1817 16.5892 12.7406 16.94 12.3661C17.2909 11.9914 17.7134 11.6904 18.1822 11.4813C18.6509 11.2722 19.1573 11.159 19.6704 11.1483ZM19.7056 12.8485C19.419 12.8545 19.1363 12.9173 18.8745 13.034C18.6128 13.1508 18.3771 13.319 18.1812 13.5282C17.9852 13.7374 17.8333 13.9839 17.7339 14.2528C17.6346 14.5215 17.5893 14.8074 17.6021 15.0936C17.62 15.4952 17.3546 15.8547 16.9654 15.9549C16.5026 16.0739 16.0725 16.2967 15.7085 16.6063C15.3446 16.9159 15.0555 17.3043 14.8638 17.742C14.6721 18.1799 14.5827 18.6561 14.6021 19.1336C14.6215 19.6112 14.7496 20.0781 14.9761 20.4989C15.1694 20.8581 15.0799 21.3041 14.7632 21.5614C14.3649 21.8849 14.052 22.3011 13.8511 22.7733C13.6502 23.2456 13.5677 23.7599 13.6109 24.2713C13.654 24.7827 13.821 25.276 14.0982 25.7079C14.3753 26.1397 14.7539 26.4976 15.2007 26.7498C15.502 26.9199 15.6708 27.2553 15.6265 27.5985C15.5713 28.0254 15.6042 28.4592 15.7232 28.8729C15.8422 29.2866 16.0443 29.6723 16.3179 30.0047C16.5915 30.3371 16.9309 30.6092 17.314 30.8055C17.6972 31.0018 18.1168 31.1184 18.5464 31.1463C18.9761 31.1742 19.4067 31.1128 19.812 30.9676C20.2174 30.8225 20.5886 30.5959 20.9029 30.3016C21.217 30.0075 21.4677 29.6524 21.6392 29.2577C21.8106 28.863 21.8994 28.437 21.8999 28.0067V15.0038C21.9007 14.7173 21.8443 14.4331 21.7339 14.1688C21.6234 13.9045 21.4617 13.6645 21.2574 13.4637C21.0529 13.2629 20.8099 13.1056 20.5435 12.9998C20.2771 12.8941 19.9922 12.8425 19.7056 12.8485Z" fill="#AB95F2"/>
<path d="M22.7964 18.1581C23.265 18.1836 23.6245 18.584 23.5992 19.0526C23.5416 20.109 23.1723 21.1251 22.5376 21.9715C21.9028 22.818 21.0308 23.4573 20.0328 23.8084C19.59 23.9642 19.1046 23.7316 18.9488 23.2889C18.793 22.8461 19.0256 22.3608 19.4683 22.2049C20.1492 21.9654 20.7442 21.5294 21.1773 20.952C21.6103 20.3746 21.8625 19.6815 21.9019 18.9608C21.9274 18.4922 22.3278 18.1327 22.7964 18.1581Z" fill="#AB95F2"/>
<path d="M16.7183 14.2821C17.1872 14.2629 17.5837 14.6277 17.6031 15.0965C17.6172 15.4432 17.715 15.7822 17.8882 16.0829C18.1222 16.4895 17.9823 17.0087 17.5757 17.243C17.1689 17.4773 16.6489 17.3373 16.4146 16.9305C16.1047 16.3924 15.9293 15.7873 15.9038 15.1668C15.8847 14.6979 16.2495 14.3015 16.7183 14.2821Z" fill="#AB95F2"/>
<path d="M14.4004 19.7635C14.8109 19.5359 15.3279 19.6842 15.5557 20.0946C15.7833 20.505 15.635 21.0221 15.2246 21.2498C15.0624 21.3399 14.9086 21.4442 14.7647 21.5614C14.4007 21.8578 13.8648 21.8033 13.5684 21.4393C13.2722 21.0754 13.3269 20.5405 13.6905 20.244C13.9123 20.0633 14.1503 19.9023 14.4004 19.7635Z" fill="#AB95F2"/>
<path d="M14.0435 27.0731C14.2742 26.6645 14.7929 26.5203 15.2017 26.7508C15.6743 27.0173 16.2079 27.1573 16.7505 27.1571C17.2199 27.157 17.6009 27.5373 17.6011 28.0067C17.6013 28.476 17.2208 28.8568 16.7515 28.8573C15.9159 28.8577 15.0936 28.6418 14.3658 28.2313C13.9571 28.0006 13.8129 27.4819 14.0435 27.0731Z" fill="#AB95F2"/>
<path d="M26.7505 22.1571C27.22 22.1571 27.6001 22.5372 27.6001 23.0067C27.6001 23.4761 27.22 23.8563 26.7505 23.8563H22.7505C22.2811 23.8563 21.9009 23.4761 21.9009 23.0067C21.9009 22.5372 22.2811 22.1571 22.7505 22.1571H26.7505Z" fill="#AB95F2"/>
<path d="M29.9009 31.0067V30.0067C29.9009 29.7017 29.7797 29.4089 29.564 29.1932C29.3483 28.9775 29.0555 28.8563 28.7505 28.8563H22.7505C22.2811 28.8563 21.8999 28.4761 21.8999 28.0067C21.8999 27.5372 22.2811 27.1571 22.7505 27.1571H28.7505C29.5064 27.1571 30.2317 27.4566 30.7661 27.9911C31.3006 28.5255 31.6001 29.2508 31.6001 30.0067V31.0067C31.6001 31.4761 31.22 31.8563 30.7505 31.8563C30.2811 31.8563 29.9009 31.4761 29.9009 31.0067Z" fill="#AB95F2"/>
<path d="M30.7505 17.1571C31.22 17.1571 31.6001 17.5372 31.6001 18.0067C31.6001 18.4761 31.22 18.8563 30.7505 18.8563H22.7505C22.2811 18.8563 21.9009 18.4761 21.9009 18.0067C21.9009 17.5372 22.2811 17.1571 22.7505 17.1571H30.7505Z" fill="#AB95F2"/>
<path d="M25.9009 18.0067V15.0067C25.9009 14.2508 26.2004 13.5255 26.7349 12.9911C27.2694 12.4566 27.9947 12.1571 28.7505 12.1571C29.22 12.1571 29.6001 12.5372 29.6001 13.0067C29.6001 13.4761 29.22 13.8563 28.7505 13.8563C28.4455 13.8563 28.1527 13.9775 27.937 14.1932C27.7214 14.4089 27.6001 14.7017 27.6001 15.0067V18.0067C27.6001 18.4761 27.22 18.8563 26.7505 18.8563C26.2811 18.8563 25.9009 18.4761 25.9009 18.0067Z" fill="#AB95F2"/>
<path d="M26.7505 22.6571C26.5572 22.6571 26.4009 22.8134 26.4009 23.0067L26.4078 23.077C26.4403 23.2366 26.5813 23.3563 26.7505 23.3563C26.9438 23.3563 27.1001 23.2 27.1001 23.0067C27.1001 22.8375 26.9804 22.6965 26.8208 22.6639L26.7505 22.6571ZM28.1001 23.0067C28.1001 23.7523 27.4961 24.3563 26.7505 24.3563C26.0049 24.3563 25.4009 23.7523 25.4009 23.0067C25.4009 22.2611 26.0049 21.6571 26.7505 21.6571C27.4961 21.6571 28.1001 22.2611 28.1001 23.0067Z" fill="#AB95F2"/>
<path d="M28.7505 12.6571C28.5572 12.6571 28.4009 12.8134 28.4009 13.0067L28.4078 13.077C28.4403 13.2366 28.5813 13.3563 28.7505 13.3563C28.9438 13.3563 29.1001 13.2 29.1001 13.0067C29.1001 12.8375 28.9804 12.6965 28.8208 12.6639L28.7505 12.6571ZM30.1001 13.0067C30.1001 13.7523 29.4961 14.3563 28.7505 14.3563C28.0049 14.3563 27.4009 13.7523 27.4009 13.0067C27.4009 12.2611 28.0049 11.6571 28.7505 11.6571C29.4961 11.6571 30.1001 12.2611 30.1001 13.0067Z" fill="#AB95F2"/>
<path d="M30.7505 30.6571C30.5572 30.6571 30.4009 30.8134 30.4009 31.0067L30.4078 31.077C30.4403 31.2366 30.5813 31.3563 30.7505 31.3563C30.9438 31.3563 31.1001 31.2 31.1001 31.0067C31.1001 30.8375 30.9804 30.6965 30.8208 30.6639L30.7505 30.6571ZM32.1001 31.0067C32.1001 31.7523 31.4961 32.3563 30.7505 32.3563C30.0049 32.3563 29.4009 31.7523 29.4009 31.0067C29.4009 30.2611 30.0049 29.6571 30.7505 29.6571C31.4961 29.6571 32.1001 30.2611 32.1001 31.0067Z" fill="#AB95F2"/>
<path d="M30.7505 17.6571C30.5572 17.6571 30.4009 17.8134 30.4009 18.0067L30.4078 18.077C30.4403 18.2366 30.5813 18.3563 30.7505 18.3563C30.9438 18.3563 31.1001 18.2 31.1001 18.0067C31.1001 17.8375 30.9804 17.6965 30.8208 17.6639L30.7505 17.6571ZM32.1001 18.0067C32.1001 18.7523 31.4961 19.3563 30.7505 19.3563C30.0049 19.3563 29.4009 18.7523 29.4009 18.0067C29.4009 17.2611 30.0049 16.6571 30.7505 16.6571C31.4961 16.6571 32.1001 17.2611 32.1001 18.0067Z" fill="#AB95F2"/>
</g>
<g opacity="0.7" filter="url(#filter1_f_3283_3077)">
<ellipse cx="22" cy="43.5" rx="17" ry="8.5" fill="#7B7B9C"/>
</g>
</g>
<rect x="0.5" y="0.5" width="43" height="43" rx="21.5" stroke="url(#paint1_linear_3283_3077)"/>
<defs>
<filter id="filter0_d_3283_3077" x="6.89941" y="6.14746" width="30.2007" height="31.7051" filterUnits="userSpaceOnUse" color-interpolation-filters="sRGB">
<feFlood flood-opacity="0" result="BackgroundImageFix"/>
<feColorMatrix in="SourceAlpha" type="matrix" values="0 0 0 0 0 0 0 0 0 0 0 0 0 0 0 0 0 0 127 0" result="hardAlpha"/>
<feOffset/>
<feGaussianBlur stdDeviation="2.5"/>
<feComposite in2="hardAlpha" operator="out"/>
<feColorMatrix type="matrix" values="0 0 0 0 0.670588 0 0 0 0 0.584314 0 0 0 0 0.94902 0 0 0 0.5 0"/>
<feBlend mode="normal" in2="BackgroundImageFix" result="effect1_dropShadow_3283_3077"/>
<feBlend mode="normal" in="SourceGraphic" in2="effect1_dropShadow_3283_3077" result="shape"/>
</filter>
<filter id="filter1_f_3283_3077" x="-9" y="21" width="62" height="45" filterUnits="userSpaceOnUse" color-interpolation-filters="sRGB">
<feFlood flood-opacity="0" result="BackgroundImageFix"/>
<feBlend mode="normal" in="SourceGraphic" in2="BackgroundImageFix" result="shape"/>
<feGaussianBlur stdDeviation="7" result="effect1_foregroundBlur_3283_3077"/>
</filter>
<linearGradient id="paint0_linear_3283_3077" x1="22" y1="0" x2="22" y2="44" gradientUnits="userSpaceOnUse">
<stop stop-color="#3B3B47"/>
<stop offset="1" stop-color="#040406"/>
</linearGradient>
<linearGradient id="paint1_linear_3283_3077" x1="22" y1="0" x2="22" y2="44" gradientUnits="userSpaceOnUse">
<stop stop-color="#515161"/>
<stop offset="1" stop-color="#213131" stop-opacity="0"/>
</linearGradient>
<clipPath id="clip0_3283_3077">
<rect width="44" height="44" rx="22" fill="white"/>
</clipPath>
</defs>
</svg>
