<svg width="289" height="405" viewBox="0 0 289 405" fill="none" xmlns="http://www.w3.org/2000/svg">
<path d="M135.905 17.8891C142.369 7.23303 157.833 7.23788 164.291 17.8979L168.623 25.0493L168.623 171.483C162.903 169.062 156.613 167.723 150.01 167.723C123.62 167.723 102.226 189.118 102.226 215.508C102.226 216.656 102.268 217.794 102.347 218.921L102.347 403.782H93.6921C84.526 403.782 77.1565 396.334 76.4206 387.198C71.2969 323.574 38.0964 267.149 15.6638 238.705C11.1124 232.935 10.318 224.938 14.1296 218.654L135.905 17.8891ZM286.014 218.845C289.766 225.038 289.048 232.908 284.626 238.641C262.209 267.704 228.805 324.928 223.537 387.202C222.764 396.335 215.395 403.782 206.229 403.782H131.357L131.357 259.513C137.088 261.946 143.392 263.292 150.01 263.292C176.401 263.292 197.795 241.899 197.796 215.508C197.796 214.174 197.74 212.853 197.632 211.546L197.632 72.9399L286.014 218.845Z" fill="#09090B" fill-opacity="0.1"/>
<path fill-rule="evenodd" clip-rule="evenodd" d="M135.905 17.8891L135.52 17.6557V17.6557L135.905 17.8891ZM164.291 17.8979L163.906 18.131V18.131L164.291 17.8979ZM168.623 25.0493H169.073V24.9236L169.008 24.8161L168.623 25.0493ZM168.623 171.483L168.447 171.897L169.073 172.162V171.483H168.623ZM150.01 167.723V167.273V167.273V167.723ZM102.226 215.508H101.776V215.508H102.226ZM102.347 218.921H102.797V218.905L102.796 218.89L102.347 218.921ZM102.347 403.782V404.232H102.797V403.782H102.347ZM93.6921 403.782V404.232V404.232V403.782ZM76.4206 387.198L75.972 387.234V387.234L76.4206 387.198ZM15.6638 238.705L15.3104 238.984H15.3104L15.6638 238.705ZM14.1296 218.654L13.7448 218.42L13.7448 218.42L14.1296 218.654ZM286.014 218.845L286.399 218.612V218.612L286.014 218.845ZM284.626 238.641L284.982 238.916V238.916L284.626 238.641ZM223.537 387.202L223.985 387.24V387.24L223.537 387.202ZM206.229 403.782V404.232V404.232V403.782ZM131.357 403.782H130.907V404.232H131.357V403.782ZM131.357 259.513L131.533 259.099L130.907 258.833V259.513H131.357ZM150.01 263.292V263.742V263.742V263.292ZM197.796 215.508H198.246V215.508H197.796ZM197.632 211.546H197.182V211.565L197.184 211.583L197.632 211.546ZM197.632 72.9399L198.017 72.7067L197.182 71.3284V72.9399H197.632ZM135.905 17.8891L136.29 18.1225C142.578 7.75534 157.624 7.76005 163.906 18.131L164.291 17.8979L164.676 17.6647C158.043 6.71571 142.159 6.71071 135.52 17.6557L135.905 17.8891ZM164.291 17.8979L163.906 18.131L168.238 25.2824L168.623 25.0493L169.008 24.8161L164.676 17.6647L164.291 17.8979ZM168.623 25.0493H168.173L168.173 171.483H168.623H169.073L169.073 25.0493H168.623ZM168.623 171.483L168.798 171.068C163.024 168.624 156.674 167.273 150.01 167.273V167.723V168.173C156.551 168.173 162.782 169.499 168.447 171.897L168.623 171.483ZM150.01 167.723V167.273C123.371 167.273 101.776 188.869 101.776 215.508H102.226H102.676C102.676 189.366 123.868 168.173 150.01 168.173V167.723ZM102.226 215.508H101.776C101.776 216.667 101.818 217.815 101.898 218.953L102.347 218.921L102.796 218.89C102.717 217.773 102.676 216.645 102.676 215.508H102.226ZM102.347 218.921H101.897L101.897 403.782H102.347H102.797L102.797 218.921H102.347ZM102.347 403.782V403.332H93.6921V403.782V404.232H102.347V403.782ZM93.6921 403.782V403.332C84.7828 403.332 77.5881 396.087 76.8691 387.162L76.4206 387.198L75.972 387.234C76.7249 396.581 84.2692 404.232 93.6921 404.232V403.782ZM76.4206 387.198L76.8691 387.162C71.7358 323.418 38.4811 266.91 16.0171 238.427L15.6638 238.705L15.3104 238.984C37.7118 267.387 70.858 323.73 75.972 387.234L76.4206 387.198ZM15.6638 238.705L16.0171 238.427C11.5721 232.791 10.8082 224.997 14.5143 218.887L14.1296 218.654L13.7448 218.42C9.82785 224.878 10.6527 233.078 15.3104 238.984L15.6638 238.705ZM14.1296 218.654L14.5143 218.887L136.29 18.1225L135.905 17.8891L135.52 17.6557L13.7448 218.42L14.1296 218.654ZM286.014 218.845L285.629 219.078C289.277 225.1 288.587 232.768 284.269 238.366L284.626 238.641L284.982 238.916C289.509 233.047 290.254 224.976 286.399 218.612L286.014 218.845ZM284.626 238.641L284.269 238.366C261.825 267.465 228.366 324.77 223.088 387.164L223.537 387.202L223.985 387.24C229.243 325.085 262.593 267.943 284.982 238.916L284.626 238.641ZM223.537 387.202L223.088 387.164C222.333 396.088 215.138 403.332 206.229 403.332V403.782V404.232C215.652 404.232 223.195 396.582 223.985 387.24L223.537 387.202ZM206.229 403.782V403.332H131.357V403.782V404.232H206.229V403.782ZM131.357 403.782H131.807L131.807 259.513H131.357H130.907L130.907 403.782H131.357ZM131.357 259.513L131.181 259.927C136.967 262.383 143.33 263.742 150.01 263.742V263.292V262.842C143.454 262.842 137.21 261.508 131.533 259.099L131.357 259.513ZM150.01 263.292V263.742C176.649 263.742 198.245 242.147 198.246 215.508H197.796H197.346C197.345 241.65 176.152 262.842 150.01 262.842V263.292ZM197.796 215.508H198.246C198.246 214.162 198.189 212.828 198.081 211.51L197.632 211.546L197.184 211.583C197.29 212.878 197.346 214.187 197.346 215.508H197.796ZM197.632 211.546H198.082L198.082 72.9399H197.632H197.182L197.182 211.546H197.632ZM197.632 72.9399L197.248 73.173L285.629 219.078L286.014 218.845L286.399 218.612L198.017 72.7067L197.632 72.9399Z" fill="#09090B"/>
<circle cx="150.184" cy="215.237" r="20.3251" fill="#09090B" fill-opacity="0.1" stroke="#09090B" stroke-width="0.9"/>
<path d="M124.205 7.98915C130.669 -2.66692 146.133 -2.66211 152.591 7.99794L156.923 15.1493L156.923 161.583C151.203 159.162 144.913 157.823 138.31 157.823C111.92 157.823 90.5262 179.218 90.5262 205.608C90.5262 206.756 90.5677 207.894 90.6473 209.021L90.6473 393.882H81.992C72.8259 393.882 65.4564 386.434 64.7205 377.298C59.5969 313.674 26.3964 257.249 3.96369 228.806C-0.587684 223.035 -1.38205 215.038 2.42951 208.754L124.205 7.98915ZM274.314 208.945C278.066 215.138 277.348 223.008 272.926 228.741C250.509 257.804 217.105 315.028 211.837 377.302C211.064 386.435 203.695 393.882 194.529 393.882H119.657L119.657 249.613C125.388 252.046 131.692 253.392 138.31 253.392C164.701 253.392 186.095 231.999 186.096 205.608C186.096 204.274 186.04 202.953 185.932 201.646L185.932 63.0399L274.314 208.945Z" fill="#FDC700"/>
<circle cx="138.483" cy="205.337" r="20.6117" fill="#FDC700" stroke="#FDC700" stroke-width="0.326731"/>
</svg>
