<?xml version="1.0" standalone="no"?>
<!DOCTYPE svg PUBLIC "-//W3C//DTD SVG 20010904//EN"
 "http://www.w3.org/TR/2001/REC-SVG-20010904/DTD/svg10.dtd">
<svg version="1.0" xmlns="http://www.w3.org/2000/svg"
 width="502.000000pt" height="502.000000pt" viewBox="0 0 502.000000 502.000000"
 preserveAspectRatio="xMidYMid meet">
<g transform="translate(0.000000,502.000000) scale(0.100000,-0.100000)"
fill="#000000" stroke="none">
<path d="M721 4885 c-1 -6 -22 -10 -51 -9 -52 3 -51 4 -54 -46 -2 -27 -17 -42
-30 -31 -7 6 -16 8 -19 4 -10 -9 -67 -9 -67 0 0 5 -6 5 -12 0 -7 -4 -20 -8
-28 -8 -12 0 -15 -18 -16 -95 -1 -52 -3 -97 -4 -100 -7 -20 -7 -39 2 -34 6 4
5 -2 -1 -15 -7 -11 -8 -21 -4 -21 5 0 8 -39 7 -87 -1 -49 -3 -88 -4 -88 -1 0
-3 -8 -5 -18 -2 -9 1 -14 7 -11 6 4 5 -2 -1 -15 -7 -11 -8 -21 -3 -21 5 0 8
-21 6 -47 -1 -27 -3 -48 -4 -48 -1 0 -3 -8 -5 -18 -2 -9 1 -14 7 -11 6 4 5 -2
-1 -15 -7 -11 -8 -21 -3 -21 12 0 9 -164 -3 -172 -7 -5 -7 -8 0 -8 7 0 10 -30
9 -77 -1 -43 -3 -78 -4 -78 -1 0 -3 -8 -5 -18 -2 -9 1 -14 7 -11 6 4 5 -2 -1
-15 -7 -11 -8 -21 -4 -21 12 0 10 -244 -2 -252 -7 -5 -6 -8 1 -8 6 0 9 -16 8
-37 -1 -21 -3 -38 -4 -38 -1 0 -3 -8 -5 -18 -2 -9 1 -14 7 -11 6 4 5 -2 -1
-15 -7 -11 -8 -21 -3 -21 5 0 8 -21 6 -47 -1 -27 -3 -48 -4 -48 -1 0 -3 -8 -5
-18 -2 -9 1 -14 7 -11 6 4 5 -2 -1 -15 -7 -11 -8 -21 -3 -21 4 0 7 -39 6 -87
-1 -49 -3 -88 -4 -88 -1 0 -3 -8 -5 -18 -2 -9 1 -14 7 -11 6 4 5 -2 -1 -15 -7
-11 -8 -21 -4 -21 5 0 8 -57 7 -127 -1 -71 -3 -128 -4 -128 -1 0 -3 -8 -5 -18
-2 -9 1 -14 7 -11 6 4 5 -2 -1 -15 -7 -11 -8 -21 -4 -21 5 0 8 -39 7 -87 -1
-49 -3 -88 -4 -88 -1 0 -3 -8 -5 -18 -2 -9 1 -14 7 -11 6 4 5 -2 -1 -15 -7
-11 -8 -21 -3 -21 5 0 8 -21 6 -48 -1 -26 -3 -47 -4 -47 -1 0 -3 -8 -5 -18 -2
-9 1 -14 7 -11 6 4 5 -2 -1 -15 -7 -11 -8 -21 -3 -21 12 0 9 -164 -3 -172 -7
-5 -7 -8 0 -8 7 0 10 -30 9 -77 -1 -43 -3 -78 -4 -78 -1 0 -3 -8 -5 -18 -2 -9
1 -14 7 -11 6 4 5 -2 -1 -15 -7 -11 -8 -21 -4 -21 12 0 10 -244 -2 -252 -7 -5
-6 -8 1 -8 6 0 9 -16 8 -38 -1 -20 -3 -37 -4 -37 -1 0 -3 -8 -5 -18 -2 -9 1
-14 7 -11 6 4 5 -2 -1 -15 -7 -11 -8 -21 -3 -21 5 0 8 -21 6 -47 -1 -27 -3
-48 -4 -48 -1 0 -3 -8 -5 -18 -2 -9 1 -14 7 -11 6 4 5 -2 -1 -15 -7 -11 -8
-21 -3 -21 4 0 7 -39 6 -88 -1 -48 -3 -87 -4 -87 -1 0 -3 -8 -5 -18 -2 -9 1
-14 7 -11 6 4 5 -2 -1 -15 -7 -11 -8 -21 -4 -21 5 0 8 -57 7 -127 -1 -71 -3
-128 -4 -128 -1 0 -3 -8 -5 -18 -2 -9 1 -14 7 -11 6 4 5 -2 -1 -15 -7 -11 -8
-21 -4 -21 5 0 8 -39 7 -87 -1 -49 -3 -88 -4 -88 -1 0 -3 -8 -5 -18 -2 -9 1
-14 7 -11 6 4 5 -2 -1 -15 -7 -11 -8 -21 -3 -21 5 0 8 -21 6 -48 -1 -26 -3
-47 -4 -47 -1 0 -3 -8 -5 -18 -2 -9 1 -14 7 -11 6 4 5 -2 -1 -15 -7 -11 -8
-21 -3 -21 10 0 9 -146 -1 -156 -4 -4 -3 -12 2 -18 9 -11 11 -17 11 -34 0 -5
113 -8 250 -8 138 1 250 -3 250 -7 0 -5 5 -5 12 -1 16 10 308 11 308 1 0 -5 5
-5 12 -1 16 10 308 11 308 1 0 -5 5 -5 12 -1 16 10 308 11 308 1 0 -5 5 -5 12
-1 16 10 308 11 308 1 0 -5 5 -5 12 -1 6 4 50 9 97 10 120 5 237 15 301 28 19
4 46 8 60 10 14 2 32 6 40 9 8 3 47 13 85 22 39 9 77 20 85 25 18 8 76 22 86
20 4 -1 10 2 13 7 3 4 24 14 46 22 44 15 201 86 225 101 8 5 40 22 70 37 30
15 61 34 68 40 13 13 28 17 45 14 5 -1 6 3 2 9 -3 5 0 10 9 10 8 0 16 3 18 8
5 11 66 52 78 52 5 0 10 5 10 10 0 6 5 10 10 10 6 0 18 8 28 18 35 32 60 50
65 46 2 -3 12 7 21 21 11 16 23 24 32 21 8 -3 13 -2 10 3 -6 10 68 81 84 81 6
0 8 5 5 10 -3 6 1 10 9 10 9 0 16 3 16 8 0 4 28 37 63 73 86 91 139 152 157
180 8 12 25 33 37 46 12 13 20 23 17 23 -3 0 1 6 8 14 7 8 17 11 22 8 5 -3 6
0 2 6 -8 13 17 55 27 47 4 -3 5 -2 2 1 -6 9 36 84 47 84 5 0 7 4 4 8 -3 5 3
18 13 29 10 11 22 29 25 41 4 12 11 20 16 17 4 -3 7 1 7 8 -1 6 18 52 42 101
37 77 60 127 66 146 1 3 5 14 9 25 4 11 12 32 18 47 6 15 14 25 19 22 5 -3 6
2 3 10 -3 8 0 32 7 53 7 21 14 40 14 43 5 22 27 98 32 110 3 8 5 21 4 28 -1 6
2 12 6 12 4 0 9 12 9 28 2 46 15 106 26 120 7 8 7 12 -1 12 -7 0 -10 4 -7 8
24 40 38 371 22 557 -4 50 -8 106 -9 125 -1 19 -6 38 -12 42 -6 5 -4 8 5 8 10
0 11 3 4 8 -7 4 -14 23 -17 42 -3 19 -10 49 -15 66 -7 23 -7 36 1 44 9 10 9
11 -2 5 -11 -6 -13 -3 -9 13 4 12 3 20 -1 18 -10 -6 -33 102 -25 116 4 6 3 8
-3 5 -12 -8 -36 50 -27 64 3 5 0 9 -5 9 -6 0 -11 6 -11 13 0 8 -7 28 -16 45
-8 18 -12 37 -8 43 4 8 3 9 -4 5 -7 -4 -12 -3 -12 3 0 5 -5 22 -12 38 -6 15
-12 30 -13 33 0 3 -6 15 -13 28 -7 12 -9 22 -5 22 4 0 3 4 -2 8 -6 4 -21 30
-35 57 -14 28 -39 74 -57 104 -18 30 -29 59 -26 65 3 6 3 8 -2 4 -12 -11 -45
49 -39 69 4 13 3 14 -4 5 -7 -10 -13 -7 -26 13 -9 14 -14 31 -10 37 4 6 3 8
-3 5 -14 -9 -66 60 -57 75 4 7 3 8 -4 4 -6 -4 -19 5 -29 21 -10 15 -30 40 -46
56 -15 16 -24 33 -21 40 4 7 4 9 -1 5 -11 -10 -107 91 -98 104 3 6 1 8 -4 5
-11 -7 -89 63 -85 76 1 4 -2 6 -7 5 -4 -2 -33 20 -63 47 -30 28 -59 52 -64 54
-25 11 -73 54 -68 62 3 5 -2 6 -10 3 -9 -3 -16 -1 -16 5 0 6 -6 11 -13 11 -8
0 -22 9 -32 20 -10 11 -24 20 -32 20 -7 0 -13 4 -13 9 0 5 -13 14 -29 21 -16
6 -38 20 -50 31 -12 11 -21 17 -21 14 0 -3 -17 5 -37 18 -44 27 -235 122 -243
120 -3 -1 -16 5 -30 12 -33 17 -82 38 -95 40 -5 1 -16 3 -23 3 -7 1 -11 5 -9
10 3 4 -5 7 -16 8 -30 1 -248 59 -243 65 2 2 -10 4 -27 4 -32 1 -106 10 -162
21 -16 3 -60 6 -97 7 -38 1 -68 6 -68 11 0 5 -6 4 -13 -3 -10 -8 -17 -7 -27 2
-7 6 -10 8 -7 2 3 -6 -23 -10 -69 -10 -41 0 -74 4 -74 8 0 5 -5 5 -11 1 -10
-6 -148 -9 -174 -4 -6 2 -14 1 -20 0 -23 -4 -86 -2 -92 4 -3 3 -12 1 -20 -5
-10 -9 -13 -8 -13 2 0 9 -3 10 -8 4 -8 -12 -82 -14 -82 -2 0 5 -5 5 -11 1 -14
-8 -144 -8 -158 0 -5 4 -13 2 -16 -4 -5 -8 -11 -7 -21 1 -8 6 -14 7 -14 2 0
-6 -11 -8 -25 -5 -21 4 -25 10 -25 42 l0 37 -130 -1 c-81 -1 -130 3 -130 9 0
7 -3 7 -8 0 -8 -12 -232 -14 -232 -2 0 5 -5 5 -12 1 -18 -11 -227 -10 -232 1
-3 6 -5 6 -5 0z m1421 -1141 c7 -5 24 -7 37 -5 13 1 28 -3 32 -11 5 -7 9 -8 9
-2 0 16 230 -38 275 -65 6 -3 12 -6 15 -6 18 -1 120 -49 120 -57 0 -5 4 -7 9
-3 5 3 16 -2 24 -10 9 -8 20 -15 25 -15 8 0 88 -51 127 -81 101 -78 255 -246
255 -278 0 -5 4 -11 9 -13 16 -5 81 -129 74 -141 -3 -6 -1 -7 5 -3 7 4 12 2
12 -4 0 -5 9 -29 19 -53 34 -77 50 -125 43 -131 -3 -4 -1 -10 5 -14 6 -4 14
-24 17 -46 4 -21 8 -41 10 -45 3 -3 7 -27 11 -51 4 -25 9 -47 11 -49 2 -2 -2
-11 -9 -19 -9 -13 -9 -14 1 -8 14 8 14 9 16 -189 2 -126 -14 -305 -31 -345 -3
-8 -7 -25 -9 -37 -1 -13 -6 -33 -10 -45 -9 -26 -11 -33 -13 -49 0 -5 -6 -7
-13 -3 -7 4 -8 3 -4 -5 11 -16 -23 -113 -36 -105 -6 4 -8 2 -4 -4 8 -13 -40
-122 -54 -122 -6 0 -9 -3 -8 -7 3 -18 -18 -54 -59 -99 -12 -13 -19 -24 -16
-24 3 0 0 -7 -7 -15 -10 -12 -16 -13 -29 -3 -14 11 -14 11 -4 -3 11 -13 7 -22
-23 -55 -19 -21 -39 -38 -45 -36 -6 1 -8 -2 -5 -7 5 -8 -73 -82 -90 -85 -5 0
-22 -13 -38 -29 -17 -15 -39 -30 -48 -33 -10 -3 -18 -10 -18 -15 0 -5 -7 -9
-16 -9 -8 0 -22 -7 -31 -15 -8 -8 -19 -13 -24 -10 -5 4 -9 2 -9 -3 0 -10 -60
-38 -72 -34 -5 1 -8 -3 -8 -9 0 -6 -9 -9 -20 -6 -10 3 -18 0 -17 -5 2 -12 -83
-39 -96 -31 -6 4 -7 1 -2 -7 6 -10 1 -12 -18 -8 -15 3 -25 2 -22 -2 2 -3 -25
-13 -61 -22 -44 -11 -64 -12 -64 -4 0 6 -4 5 -9 -3 -5 -8 -16 -11 -24 -8 -9 3
-17 2 -19 -3 -5 -15 -368 -32 -368 -18 0 5 -5 6 -12 2 -17 -11 -108 -11 -108
-1 0 5 -7 4 -15 -3 -32 -27 -40 4 -41 160 0 102 3 150 10 150 6 0 4 5 -4 10
-13 9 -13 11 0 20 8 5 10 10 5 10 -6 0 -11 16 -12 35 0 23 3 33 11 28 6 -4 5
1 -3 10 -11 14 -11 20 0 34 8 9 9 14 3 11 -7 -5 -10 70 -10 238 0 165 3 244
10 244 6 0 4 5 -4 10 -13 9 -13 11 0 20 8 5 10 10 5 10 -6 0 -11 16 -12 35 0
23 3 33 11 28 6 -4 5 1 -3 10 -11 14 -11 20 0 34 8 9 9 14 3 10 -7 -4 -10 34
-10 123 0 88 3 127 10 123 6 -3 5 0 -1 8 -7 7 -13 17 -13 22 0 4 6 5 13 1 8
-5 8 -2 -2 9 -11 14 -11 20 0 34 8 9 9 14 3 10 -14 -8 -14 101 0 122 6 10 6
12 -2 7 -16 -10 -15 7 1 23 6 8 7 11 2 8 -7 -4 -11 46 -11 154 0 107 3 159 10
159 6 0 4 5 -4 10 -13 9 -13 11 0 20 8 5 10 10 5 10 -6 0 -11 16 -12 35 0 23
3 33 11 28 6 -4 5 1 -3 10 -11 14 -11 20 0 34 8 9 9 14 3 10 -7 -4 -10 34 -10
123 0 88 3 127 10 123 6 -3 5 0 -1 8 -7 7 -13 17 -13 22 0 4 6 5 13 1 8 -5 8
-2 -2 9 -11 14 -11 20 0 34 8 9 9 14 3 10 -14 -8 -14 101 0 122 6 9 5 12 -2 7
-17 -10 -9 57 8 72 13 10 13 11 -2 6 -12 -4 -16 0 -15 13 1 19 11 20 229 17
125 -1 233 -6 240 -10z"/>
</g>
</svg>
