<?xml version="1.0" standalone="no"?>
<!DOCTYPE svg PUBLIC "-//W3C//DTD SVG 20010904//EN"
 "http://www.w3.org/TR/2001/REC-SVG-20010904/DTD/svg10.dtd">
<svg version="1.0" xmlns="http://www.w3.org/2000/svg"
 width="533.000000pt" height="533.000000pt" viewBox="0 0 533.000000 533.000000"
 preserveAspectRatio="xMidYMid meet">
<metadata>
Created by potrace 1.14, written by Peter Selinger 2001-2017
</metadata>
<g transform="translate(0.000000,533.000000) scale(0.100000,-0.100000)"
fill="#000000" stroke="none">
<path d="M703 5292 l-83 -3 0 -79 0 -78 -47 0 c-27 0 -73 -1 -103 -1 l-55 -1
2 -2528 c0 -1390 2 -2535 2 -2545 1 -17 49 -18 1129 -14 620 2 1150 7 1177 10
47 6 72 10 163 22 21 3 49 8 62 10 14 3 39 7 55 10 29 5 54 10 160 35 202 48
487 166 669 277 187 114 420 316 540 471 27 34 54 62 59 62 6 0 8 3 4 6 -5 6
35 69 54 84 3 3 8 10 10 15 9 22 94 160 102 166 5 3 8 8 7 10 -1 2 15 40 37
84 37 76 103 235 103 248 0 3 5 18 12 34 6 15 12 33 14 38 1 6 14 51 28 100
25 88 60 251 71 330 3 23 7 50 9 60 2 11 7 58 11 105 3 47 8 99 11 115 11 84
4 498 -10 615 -3 19 -8 60 -12 90 -3 30 -8 64 -10 75 -2 11 -7 40 -10 65 -3
25 -8 48 -10 51 -2 3 -6 21 -9 40 -36 211 -158 538 -273 729 -12 19 -30 51
-41 70 -10 19 -33 52 -50 74 -17 21 -31 43 -31 47 0 5 -8 17 -17 27 -19 20
-59 68 -95 115 -34 44 -193 197 -272 262 -286 233 -705 418 -1096 484 -36 6
-74 13 -86 15 -20 4 -80 11 -174 21 -123 13 -270 17 -670 17 l-437 1 -2 76
c-1 41 -3 77 -5 79 -5 4 -785 8 -893 4z m1832 -1346 c85 -12 247 -47 305 -67
86 -29 124 -44 135 -51 6 -3 33 -18 60 -33 239 -131 398 -404 456 -780 30
-197 33 -681 5 -820 -2 -11 -7 -45 -11 -75 -22 -166 -116 -414 -201 -526 -129
-170 -301 -280 -517 -329 -10 -2 -26 -6 -35 -9 -17 -5 -40 -10 -112 -21 -95
-15 -231 -20 -510 -20 l-305 0 -2 1372 -3 1372 343 -4 c188 -1 365 -6 392 -9z"/>
</g>
</svg>
